<svg id="info-circle" xmlns="http://www.w3.org/2000/svg" width="14.785" height="14.785" viewBox="0 0 14.785 14.785">
  <path id="Контур_653" data-name="Контур 653" d="M7.393,13.861A6.469,6.469,0,1,0,.924,7.393,6.469,6.469,0,0,0,7.393,13.861Zm0,.924A7.393,7.393,0,1,0,0,7.393,7.393,7.393,0,0,0,7.393,14.785Z" fill="#07f"/>
  <path id="Контур_654" data-name="Контур 654" d="M16.872,14.823l-2.116.265-.076.351.416.077c.271.065.325.163.266.433l-.682,3.2c-.179.829.1,1.219.747,1.219a1.914,1.914,0,0,0,1.354-.552l.081-.384a1.024,1.024,0,0,1-.634.227c-.254,0-.347-.178-.281-.492Z" transform="translate(-8.62 -8.735)" fill="#07f"/>
  <path id="Контур_655" data-name="Контур 655" d="M17.6,8.8a.924.924,0,1,1-.924-.924A.924.924,0,0,1,17.6,8.8Z" transform="translate(-9.281 -4.641)" fill="#07f"/>
</svg>
