<?xml version="1.0" encoding="UTF-8" standalone="no"?>
<svg
   xmlns:dc="http://purl.org/dc/elements/1.1/"
   xmlns:cc="http://creativecommons.org/ns#"
   xmlns:rdf="http://www.w3.org/1999/02/22-rdf-syntax-ns#"
   xmlns:svg="http://www.w3.org/2000/svg"
   xmlns="http://www.w3.org/2000/svg"
   xmlns:sodipodi="http://sodipodi.sourceforge.net/DTD/sodipodi-0.dtd"
   xmlns:inkscape="http://www.inkscape.org/namespaces/inkscape"
   height="393pt"
   viewBox="-4 0 393 393.99003"
   width="393pt"
   id="svg2"
   version="1.1"
   inkscape:version="0.91 r13725"
   sodipodi:docname="filter.svg">
  <metadata
     id="metadata10">
    <rdf:RDF>
      <cc:Work
         rdf:about="">
        <dc:format>image/svg+xml</dc:format>
        <dc:type
           rdf:resource="http://purl.org/dc/dcmitype/StillImage" />
        <dc:title></dc:title>
      </cc:Work>
    </rdf:RDF>
  </metadata>
  <defs
     id="defs8" />
  <sodipodi:namedview
     pagecolor="#ffffff"
     bordercolor="#666666"
     borderopacity="1"
     objecttolerance="10"
     gridtolerance="10"
     guidetolerance="10"
     inkscape:pageopacity="0"
     inkscape:pageshadow="2"
     inkscape:window-width="1680"
     inkscape:window-height="987"
     id="namedview6"
     showgrid="false"
     inkscape:zoom="0.48040712"
     inkscape:cx="245.625"
     inkscape:cy="245.625"
     inkscape:window-x="-8"
     inkscape:window-y="-8"
     inkscape:window-maximized="1"
     inkscape:current-layer="svg2" />
  <path
     d="m368.3125 0h-351.261719c-6.195312-.0117188-11.875 3.449219-14.707031 8.960938-2.871094 5.585937-2.3671875 12.3125 1.300781 17.414062l128.6875 181.28125c.042969.0625.089844.121094.132813.183594 4.675781 6.3125 7.203125 13.957031 7.21875 21.816406v147.796875c-.027344 4.378906 1.691406 8.582031 4.777344 11.6875 3.085937 3.105469 7.28125 4.847656 11.65625 4.847656 2.226562 0 4.425781-.445312 6.480468-1.296875l72.3125-27.574218c6.480469-1.976563 10.78125-8.089844 10.78125-15.453126v-120.007812c.011719-7.855469 2.542969-15.503906 7.214844-21.816406.042969-.0625.089844-.121094.132812-.183594l128.683594-181.289062c3.667969-5.097657 4.171875-11.820313 1.300782-17.40625-2.832032-5.511719-8.511719-8.9726568-14.710938-8.960938zm-131.53125 195.992188c-7.1875 9.753906-11.074219 21.546874-11.097656 33.664062v117.578125l-66 25.164063v-142.742188c-.023438-12.117188-3.910156-23.910156-11.101563-33.664062l-124.933593-175.992188h338.070312zm0 0"
     id="path4" />
</svg>
