<svg xmlns="http://www.w3.org/2000/svg" width="184.303" height="21.722" viewBox="0 0 184.303 21.722"><defs><style>.a{fill:#2720eb;}</style></defs><path class="a" d="M11.059-7.363l.68-3.172H22.557A13.344,13.344,0,0,1,18.6-2.471a11.511,11.511,0,0,1-8.107,2.9A9.522,9.522,0,0,1,5.827-.708a8.1,8.1,0,0,1-3.2-3.129,8.919,8.919,0,0,1-1.14-4.5,12.22,12.22,0,0,1,.956-4.772,12.48,12.48,0,0,1,2.591-3.951,12.218,12.218,0,0,1,3.922-2.662,12,12,0,0,1,4.822-.991,9.882,9.882,0,0,1,4.5,1.02,8.219,8.219,0,0,1,3.214,2.782A7,7,0,0,1,22.7-13.027H18.437a4.255,4.255,0,0,0-1.671-2.7,5.4,5.4,0,0,0-3.328-1.005A7.179,7.179,0,0,0,9.473-15.59,7.883,7.883,0,0,0,6.7-12.56,8.645,8.645,0,0,0,5.721-8.5,4.85,4.85,0,0,0,7.066-4.885a5.1,5.1,0,0,0,3.752,1.331A7.525,7.525,0,0,0,14.84-4.567a6.576,6.576,0,0,0,2.506-2.8ZM22.24,0,26.5-21.3h4.036L26.276,0ZM36.607.425a7.108,7.108,0,0,1-5.211-2,6.749,6.749,0,0,1-2.025-5.013,9.183,9.183,0,0,1,1.3-4.765,9.508,9.508,0,0,1,3.526-3.462,9.662,9.662,0,0,1,4.878-1.274,7.121,7.121,0,0,1,5.211,1.99,6.743,6.743,0,0,1,2.025,5.02A9.124,9.124,0,0,1,45.542-5.4a9.487,9.487,0,0,1-2.067,3.03A9.869,9.869,0,0,1,40.381-.333,9.589,9.589,0,0,1,36.607.425Zm.382-3.781a4.838,4.838,0,0,0,3.717-1.65,5.555,5.555,0,0,0,1.508-3.873,3.327,3.327,0,0,0-.956-2.492,3.518,3.518,0,0,0-2.57-.935,4.86,4.86,0,0,0-3.724,1.65,5.54,5.54,0,0,0-1.515,3.873,3.314,3.314,0,0,0,.963,2.492A3.543,3.543,0,0,0,36.989-3.356ZM57.756-16.072a6.612,6.612,0,0,1,4.97,1.94A6.8,6.8,0,0,1,64.61-9.19a9.453,9.453,0,0,1-1.281,4.829,9.474,9.474,0,0,1-3.5,3.5A9.541,9.541,0,0,1,54.953.425a6,6,0,0,1-4.772-2.039L49.289,0H46.3l4.262-21.3H54.6l-1.317,6.556A8.3,8.3,0,0,1,57.756-16.072ZM55.25-3.384a4.939,4.939,0,0,0,3.682-1.643A5.342,5.342,0,0,0,60.5-8.836a3.256,3.256,0,0,0-1.012-2.492,3.726,3.726,0,0,0-2.655-.949,4.951,4.951,0,0,0-3.689,1.628,5.323,5.323,0,0,0-1.565,3.809A3.279,3.279,0,0,0,52.6-4.34,3.71,3.71,0,0,0,55.25-3.384ZM80.506-15.661h3.129L80.506,0H77.518l-.1-1.458A8.6,8.6,0,0,1,71.982.425a6.747,6.747,0,0,1-5.034-1.982,6.842,6.842,0,0,1-1.947-5,9.434,9.434,0,0,1,1.253-4.758A9.371,9.371,0,0,1,69.695-14.8,9.3,9.3,0,0,1,74.5-16.086a6.786,6.786,0,0,1,2.9.609,6.09,6.09,0,0,1,2.2,1.713ZM72.732-3.384a5,5,0,0,0,3.71-1.643,5.318,5.318,0,0,0,1.586-3.809,3.308,3.308,0,0,0-1.005-2.513,3.7,3.7,0,0,0-2.662-.956,4.939,4.939,0,0,0-3.682,1.643,5.359,5.359,0,0,0-1.572,3.823A3.309,3.309,0,0,0,70.1-4.333,3.65,3.65,0,0,0,72.732-3.384ZM83.205,0l4.262-21.3H91.5L87.241,0Zm28.23-20.306H115.7L114.8,0h-4.163l.666-13.4L102.471-.1h-1.005L97.983-13.452,93.126,0H88.779l7.264-20.306h4.106l3.144,12.461Zm12.5,20.73a7.108,7.108,0,0,1-5.211-2A6.749,6.749,0,0,1,116.7-6.584a9.183,9.183,0,0,1,1.3-4.765,9.508,9.508,0,0,1,3.526-3.462,9.662,9.662,0,0,1,4.878-1.274,7.121,7.121,0,0,1,5.211,1.99,6.743,6.743,0,0,1,2.025,5.02,9.124,9.124,0,0,1-.765,3.682,9.487,9.487,0,0,1-2.067,3.03,9.869,9.869,0,0,1-3.094,2.032A9.589,9.589,0,0,1,123.933.425Zm.382-3.781a4.838,4.838,0,0,0,3.717-1.65,5.555,5.555,0,0,0,1.508-3.873,3.327,3.327,0,0,0-.956-2.492,3.518,3.518,0,0,0-2.57-.935,4.86,4.86,0,0,0-3.724,1.65,5.54,5.54,0,0,0-1.515,3.873,3.314,3.314,0,0,0,.963,2.492A3.543,3.543,0,0,0,124.315-3.356Zm20.881-8.68h-4.46q-1.2,5.961-1.2,6.386a1.787,1.787,0,0,0,.573,1.43,2.475,2.475,0,0,0,1.664.5h1.813l-.75,3.738h-2.28a5.394,5.394,0,0,1-3.788-1.253A4.428,4.428,0,0,1,135.4-4.673a9.36,9.36,0,0,1,.163-1.522q.163-.942.871-4.439.184-.906.283-1.4h-2.889l.17-.85,7.533-6.854h.779l-.821,4.078h4.432ZM151.8.425a7.108,7.108,0,0,1-5.211-2,6.749,6.749,0,0,1-2.025-5.013,9.183,9.183,0,0,1,1.3-4.765,9.508,9.508,0,0,1,3.526-3.462,9.662,9.662,0,0,1,4.878-1.274,7.121,7.121,0,0,1,5.211,1.99,6.743,6.743,0,0,1,2.025,5.02,9.124,9.124,0,0,1-.765,3.682,9.487,9.487,0,0,1-2.067,3.03,9.869,9.869,0,0,1-3.094,2.032A9.589,9.589,0,0,1,151.8.425Zm.382-3.781a4.838,4.838,0,0,0,3.717-1.65,5.555,5.555,0,0,0,1.508-3.873,3.327,3.327,0,0,0-.956-2.492,3.518,3.518,0,0,0-2.57-.935,4.86,4.86,0,0,0-3.724,1.65,5.54,5.54,0,0,0-1.515,3.873,3.314,3.314,0,0,0,.963,2.492A3.542,3.542,0,0,0,152.185-3.356Zm20.385-12.39h1.388l-.765,3.809H171.38a4.155,4.155,0,0,0-2.726.814,4.655,4.655,0,0,0-1.409,2.6L165.532,0H161.5l3.129-15.661h2.62l.3,1.827A7.1,7.1,0,0,1,172.57-15.746ZM177.393.425a6.432,6.432,0,0,1-4.1-1.253A4.03,4.03,0,0,1,171.7-4.163a5.531,5.531,0,0,1,.085-.963h3.894a2.093,2.093,0,0,0-.042.411A1.521,1.521,0,0,0,176.3-3.4,2.883,2.883,0,0,0,178-2.931a3.555,3.555,0,0,0,1.961-.531,1.644,1.644,0,0,0,.828-1.451.939.939,0,0,0-.163-.538,1.432,1.432,0,0,0-.382-.389,2.549,2.549,0,0,0-.651-.283q-.432-.135-.758-.205t-.906-.17q-.609-.113-.956-.191t-.92-.241a5.924,5.924,0,0,1-.913-.326,5.928,5.928,0,0,1-.765-.453,2.381,2.381,0,0,1-.651-.63,3.468,3.468,0,0,1-.389-.828,3.363,3.363,0,0,1-.163-1.069,5.126,5.126,0,0,1,2.018-4.283,8.106,8.106,0,0,1,5.119-1.565,6.117,6.117,0,0,1,3.986,1.218,3.842,3.842,0,0,1,1.494,3.115,4.623,4.623,0,0,1-.085.85h-3.781a.723.723,0,0,1,.014-.12q.014-.078.021-.142a1.094,1.094,0,0,0,.007-.12,1.34,1.34,0,0,0-.573-1.168,2.761,2.761,0,0,0-1.607-.4,3.237,3.237,0,0,0-1.89.517,1.556,1.556,0,0,0-.743,1.324.874.874,0,0,0,.163.524,1.47,1.47,0,0,0,.389.375,2.7,2.7,0,0,0,.658.283,7.33,7.33,0,0,0,.758.2l.906.177q.538.1.843.163t.821.191a5.438,5.438,0,0,1,.828.262q.312.135.729.34a2.3,2.3,0,0,1,.666.467,5.874,5.874,0,0,1,.489.595,2.173,2.173,0,0,1,.347.772,4.093,4.093,0,0,1,.106.963,5.383,5.383,0,0,1-2.1,4.5A8.472,8.472,0,0,1,177.393.425Z" transform="translate(-1.487 21.297)"/></svg>