<svg xmlns="http://www.w3.org/2000/svg" xmlns:xlink="http://www.w3.org/1999/xlink" width="126.763" height="155" viewBox="0 0 126.763 155"><defs><style>.a{fill:url(#a);}.b{fill:url(#b);}.c{fill:url(#c);}.d{fill:url(#d);}.e{fill:#fe7058;}.f,.h,.i{fill:#fff;}.g{fill:url(#h);}.h{opacity:0.3;}.i{opacity:0.29;}.j{fill:#bdbec1;}</style><linearGradient id="a" x1="0.5" x2="0.5" y2="1" gradientUnits="objectBoundingBox"><stop offset="0" stop-color="#749bfd"/><stop offset="1" stop-color="#2925e4"/></linearGradient><linearGradient id="b" x1="0.166" y1="0.886" x2="1" y2="0.027" gradientUnits="objectBoundingBox"><stop offset="0" stop-color="#7298fd"/><stop offset="1" stop-color="#2925e4"/></linearGradient><linearGradient id="c" x1="0.5" x2="0.5" y2="1" gradientUnits="objectBoundingBox"><stop offset="0" stop-color="#7298fd"/><stop offset="1" stop-color="#1d3ede"/></linearGradient><linearGradient id="d" x1="1.627" y1="-5.53" x2="-0.433" y2="1.965" gradientUnits="objectBoundingBox"><stop offset="0" stop-color="#3539e8"/><stop offset="1" stop-color="#1d2b35"/></linearGradient><linearGradient id="h" x1="1.627" y1="-5.53" x2="-0.433" y2="1.965" gradientUnits="objectBoundingBox"><stop offset="0" stop-color="#3539e8"/><stop offset="1" stop-color="#749bfe"/></linearGradient></defs><g transform="translate(-1312.237 -3784.603)"><g transform="translate(1316.064 3785)"><g transform="translate(0 0)"><path class="a" d="M61.5,155a4.456,4.456,0,0,1-1.355-.211,85.534,85.534,0,0,1-43.5-31.477A86.81,86.81,0,0,1,0,71.975V25.732a4.521,4.521,0,0,1,4.5-4.541A34.751,34.751,0,0,0,35.366,2.423,4.494,4.494,0,0,1,39.346,0H83.654a4.485,4.485,0,0,1,3.515,1.706,4.546,4.546,0,0,1,.465.717,34.74,34.74,0,0,0,30.839,18.769A4.544,4.544,0,0,1,123,25.732V71.975a86.809,86.809,0,0,1-16.646,51.337,85.53,85.53,0,0,1-43.5,31.477A4.455,4.455,0,0,1,61.5,155Z" transform="translate(-0.064 -0.397)"/><path class="b" d="M165.054,200.784a5.727,5.727,0,0,1-2.152-.419c-31.529-12.791-51.9-42.583-51.9-75.9V87.355a5.456,5.456,0,0,1,3.845-5.168A65.4,65.4,0,0,0,145.074,62a5.653,5.653,0,0,1,4.329-2h31.3a5.653,5.653,0,0,1,4.33,2A65.4,65.4,0,0,0,215.262,82.19a5.456,5.456,0,0,1,3.845,5.168v37.108c0,33.316-20.372,63.108-51.9,75.9A5.725,5.725,0,0,1,165.054,200.784Z" transform="translate(-103.343 -52.995)"/></g><path class="c" d="M15.348,35.754,1.321,21.725A4.509,4.509,0,0,1,7.7,15.348l10.84,10.84L43.4,1.321l.01-.01.01-.01.012-.012.009-.009.013-.013.008-.007.014-.014.007-.006.015-.014.006-.006.015-.014L43.53,1.2a4.509,4.509,0,0,1,6.251,6.5h0l-24.23,24.23-3.826,3.826a4.509,4.509,0,0,1-6.377,0Z" transform="translate(36.072 30.839)"/></g><g transform="translate(1312.237 3862.005)"><g transform="translate(0 18.592)"><path class="d" d="M327.426,265.222l7.778-.046a2.685,2.685,0,0,1,2.7,2.668L338,283.288a2.685,2.685,0,0,1-2.668,2.7l-7.778.046a2.685,2.685,0,0,1-2.7-2.668l-.092-15.444A2.685,2.685,0,0,1,327.426,265.222Z" transform="translate(-238.572 -227.5)"/><path class="d" d="M29.194,267l7.778-.046a2.685,2.685,0,0,1,2.7,2.668l.092,15.444a2.685,2.685,0,0,1-2.668,2.7l-7.778.046a2.685,2.685,0,0,1-2.7-2.668L26.525,269.7A2.685,2.685,0,0,1,29.194,267Z" transform="translate(-19.486 -228.804)"/><path class="d" d="M354.363,123.317a1.255,1.255,0,0,0-1.137,1.263,2.538,2.538,0,0,1-1.9,2.778l-1.935.012.994,2.9s12.457-.075,12.085-4.167c-.289-3.176-5.7-3.017-8.106-2.786Z" transform="translate(-256.667 -123.208)"/><path class="d" d="M8.114,123.317a1.255,1.255,0,0,1,1.137,1.263,2.538,2.538,0,0,0,1.9,2.778l1.935.012-.994,2.9S-.364,130.194.008,126.1c.289-3.176,5.7-3.017,8.106-2.786Z" transform="translate(0 -123.208)"/></g><path class="e" d="M110.359,96.15a21.432,21.432,0,0,0-2.581-8.677l-5.251-9.63S93.2,56.827,89.318,55.154c-3.756-1.617-27.728-1.981-29.316-2h-.088c-1.588.042-25.554.692-29.29,2.354-3.865,1.718-12.942,22.841-12.942,22.841l-5.131,9.693a21.454,21.454,0,0,0-2.477,8.706,62.746,62.746,0,0,0,2.146,19.964,7,7,0,0,0,6.814,5.147l41.288-.239h.088l41.288-.245a7,7,0,0,0,6.751-5.229A62.689,62.689,0,0,0,110.359,96.15Z" transform="translate(-7.334 -53.151)"/><path class="f" d="M120.1,261.57l40.235-.24a1.3,1.3,0,0,1,1.311,1.3l.041,6.851a1.3,1.3,0,0,1-1.3,1.311l-40.235.24a1.3,1.3,0,0,1-1.311-1.3l-.041-6.851A1.3,1.3,0,0,1,120.1,261.57Z" transform="translate(-87.273 -206.082)"/><path class="g" d="M124.534,66.849a2.625,2.625,0,0,0-2.333-1.529l-27.512-.564H94.6l-27.5.893A2.626,2.626,0,0,0,64.786,67.2L56.894,84.956l37.825-.226h.087l37.831-.226Z" transform="translate(-41.795 -61.675)"/><path class="h" d="M332.3,256.968a4.8,4.8,0,1,0,4.829,4.774v0A4.8,4.8,0,0,0,332.3,256.968Z" transform="translate(-240.603 -202.878)"/><path class="h" d="M41.759,258.7a4.8,4.8,0,1,0,4.831,4.773A4.8,4.8,0,0,0,41.759,258.7Z" transform="translate(-27.171 -204.153)"/><path class="f" d="M131.61,216.343h35.02v4.371H131.61Z" transform="translate(-96.683 -173.034)"/><path class="i" d="M307.5,185.864a1.864,1.864,0,0,0-2.062-1.642,1.836,1.836,0,0,0-.237.042l-16.015,3.916a1.865,1.865,0,0,0-1.151.847l-3.172,5.251a1.861,1.861,0,0,0,1.593,2.824H302.1a1.874,1.874,0,0,0,1.032-.3C306.823,194.356,307.978,190.548,307.5,185.864Z" transform="translate(-209.065 -149.429)"/><path class="j" d="M332.986,196.035a3.509,3.509,0,1,0,3.65,3.363A3.509,3.509,0,0,0,332.986,196.035Z" transform="translate(-242.145 -158.113)"/><path class="j" d="M307.2,208.655a2.669,2.669,0,1,0,2.774,2.559v0A2.669,2.669,0,0,0,307.2,208.655Z" transform="translate(-223.792 -167.385)"/><path class="i" d="M27.513,185.864a1.864,1.864,0,0,1,2.062-1.642,1.834,1.834,0,0,1,.237.042l16.015,3.916a1.865,1.865,0,0,1,1.151.847l3.173,5.251a1.861,1.861,0,0,1-1.593,2.824H32.91a1.875,1.875,0,0,1-1.032-.3C28.186,194.356,27.032,190.548,27.513,185.864Z" transform="translate(-20.136 -149.429)"/><path class="j" d="M46.289,196.035a3.509,3.509,0,1,1-3.65,3.363A3.509,3.509,0,0,1,46.289,196.035Z" transform="translate(-31.322 -158.113)"/><path class="j" d="M76.728,208.655a2.669,2.669,0,1,1-2.774,2.559v0A2.669,2.669,0,0,1,76.728,208.655Z" transform="translate(-54.326 -167.385)"/></g></g></svg>