<svg xmlns="http://www.w3.org/2000/svg" xmlns:xlink="http://www.w3.org/1999/xlink" width="143.183" height="136.784" viewBox="0 0 143.183 136.784"><defs><style>.a{fill:url(#a);}.b{fill:url(#b);}</style><linearGradient id="a" x1="1" y1="0.032" x2="0.027" y2="0.986" gradientUnits="objectBoundingBox"><stop offset="0" stop-color="#759dfe"/><stop offset="1" stop-color="#2824e3"/></linearGradient><linearGradient id="b" x1="-0.063" y1="1.059" x2="1" y2="0.026" gradientUnits="objectBoundingBox"><stop offset="0" stop-color="#749bfe"/><stop offset="1" stop-color="#393fe9"/></linearGradient></defs><g transform="translate(-635.985 -3334.216)"><g transform="translate(635.985 3334.216)"><path class="a" d="M26.937,136.784a2.16,2.16,0,1,1,0-4.319H43.215a12.159,12.159,0,0,0,11.017-8.308l.919-3.211,2.469-8.639H8.643A8.666,8.666,0,0,1,0,103.667V86.39H0V8.639A8.666,8.666,0,0,1,8.643,0h125.9a8.666,8.666,0,0,1,8.643,8.639v77.75h0v17.277a8.666,8.666,0,0,1-8.643,8.639H85.564l3.388,11.85a12.159,12.159,0,0,0,11.017,8.308h16.278a2.16,2.16,0,1,1,0,4.319Z" transform="translate(0 0)"/><rect class="b" width="131.984" height="99.463" rx="5" transform="translate(5.599 5.599)"/><rect class="b" width="53.594" height="7.199" rx="3.6" transform="translate(75.991 20.797)"/><rect class="b" width="53.594" height="38.396" rx="5" transform="translate(14.398 20.797)"/><rect class="b" width="53.594" height="7.199" rx="3.6" transform="translate(75.991 31.196)"/><rect class="b" width="27.797" height="7.199" rx="3.6" transform="translate(75.991 41.595)"/></g></g></svg>