<svg xmlns="http://www.w3.org/2000/svg" width="23.209" height="21.551" viewBox="0 0 23.209 21.551">
  <g id="box-arrow-in-left" transform="translate(-2.25 -3.375)">
    <path id="Контур_698" data-name="Контур 698" d="M15.389,21.486a.829.829,0,0,0,0-1.174L11,15.927l4.388-4.387a.83.83,0,0,0-1.174-1.174L9.242,15.339a.829.829,0,0,0,0,1.174l4.973,4.973a.829.829,0,0,0,1.174,0Z" transform="translate(-1.776 -1.776)" fill="#07f"/>
    <path id="Контур_699" data-name="Контур 699" d="M27.828,17.7A.829.829,0,0,0,27,16.875H12.079a.829.829,0,1,0,0,1.658H27A.829.829,0,0,0,27.828,17.7Z" transform="translate(-2.369 -3.553)" fill="#07f"/>
    <path id="Контур_700" data-name="Контур 700" d="M4.737,24.926A2.487,2.487,0,0,1,2.25,22.439V5.862A2.487,2.487,0,0,1,4.737,3.375H18a2.487,2.487,0,0,1,2.487,2.487V8.348a.829.829,0,1,1-1.658,0V5.862A.829.829,0,0,0,18,5.033H4.737a.829.829,0,0,0-.829.829V22.439a.829.829,0,0,0,.829.829H18a.829.829,0,0,0,.829-.829V19.953a.829.829,0,0,1,1.658,0v2.487A2.487,2.487,0,0,1,18,24.926Z" transform="translate(0 0)"/>
  </g>
</svg>
