<svg xmlns="http://www.w3.org/2000/svg" width="20.44" height="12.775" viewBox="0 0 20.44 12.775">
  <g id="truck-flatbed" transform="translate(0 -9)">
    <path id="Контур_663" data-name="Контур 663" d="M15.025,11.25h2.581a1.916,1.916,0,0,1,1.494.719l1.892,2.364a1.916,1.916,0,0,1,.42,1.2v2.745A1.916,1.916,0,0,1,19.5,20.193H18.219V18.915H19.5a.639.639,0,0,0,.639-.639V15.529a.639.639,0,0,0-.14-.4L18.1,12.767a.639.639,0,0,0-.5-.24H16.3v5.749H15.025ZM4.805,21.47a1.278,1.278,0,1,0-1.278-1.278A1.278,1.278,0,0,0,4.805,21.47Zm0,1.278A2.555,2.555,0,1,0,2.25,20.193,2.555,2.555,0,0,0,4.805,22.748Z" transform="translate(-0.972 -0.972)"/>
    <path id="Контур_664" data-name="Контур 664" d="M25.055,26.333a1.278,1.278,0,1,0-1.278-1.278A1.278,1.278,0,0,0,25.055,26.333Zm0,1.278A2.555,2.555,0,1,0,22.5,25.055,2.555,2.555,0,0,0,25.055,27.61Z" transform="translate(-9.725 -5.835)"/>
    <path id="Контур_665" data-name="Контур 665" d="M0,16.665H14.053V19.22h-8.3V17.943H1.916V19.22H1.278A1.278,1.278,0,0,1,0,17.943ZM14.053,9a1.278,1.278,0,0,1,1.278,1.278v7.665H14.053Z"/>
  </g>
</svg>
