<svg xmlns="http://www.w3.org/2000/svg" width="25.795" height="24.79" viewBox="0 0 25.795 24.79"><defs><style>.a{fill:#2720eb;}</style></defs><g transform="translate(-319.102 -403.105)"><g transform="translate(318.872 402.055)"><path class="a" d="M20.857,1.05H5.4A5.238,5.238,0,0,0,.231,6.344,5.238,5.238,0,0,0,5.4,11.637H9.562v5.211l-.571-.491a2.177,2.177,0,0,0-1.422-.517,2.2,2.2,0,0,0-1.576.651,2.006,2.006,0,0,0,.126,2.944l3.444,2.959v2.894a.546.546,0,0,0,.538.551h9.231a.546.546,0,0,0,.538-.551V16.436a2.113,2.113,0,0,0-1.82-2.111l-4.334-.553V11.637h7.142a5.238,5.238,0,0,0,5.169-5.293A5.238,5.238,0,0,0,20.857,1.05ZM18.792,24.737H10.638V22.689h8.154Zm-.876-9.318a1.018,1.018,0,0,1,.876,1.016v5.15H10.3l-3.486-3a.888.888,0,0,1-.056-1.319A1.161,1.161,0,0,1,8.3,17.2l1.456,1.251a.517.517,0,0,0,.574.077.54.54,0,0,0,.311-.5V7.957a1,1,0,1,1,2,0v6.3a.548.548,0,0,0,.472.547Zm2.941-4.885H13.715V7.957a2.078,2.078,0,1,0-4.154,0v2.577H5.4a4.147,4.147,0,0,1-4.092-4.19A4.147,4.147,0,0,1,5.4,2.153H20.857a4.147,4.147,0,0,1,4.092,4.191A4.147,4.147,0,0,1,20.857,10.534Z"/><path class="a" d="M20.815,4.2a.528.528,0,0,0-.381.162h0l-2.7,2.761L16.581,5.939a.529.529,0,0,0-.761,0,.561.561,0,0,0,0,.78l1.538,1.576a.529.529,0,0,0,.761,0L21.2,5.143a.561.561,0,0,0,0-.78A.528.528,0,0,0,20.815,4.2Z"/></g><path class="a" d="M328.972,427.894a.545.545,0,0,1-.538-.551v-2.894l-3.443-2.959a2.007,2.007,0,0,1-.126-2.944,2.2,2.2,0,0,1,1.577-.652,2.178,2.178,0,0,1,1.422.517l.571.491v-5.211h-4.163a5.295,5.295,0,0,1,0-10.587h15.458a5.295,5.295,0,0,1,0,10.587h-7.142v2.136l4.333.553a2.113,2.113,0,0,1,1.821,2.111v8.853a.545.545,0,0,1-.538.551Zm.539-1.1h8.153v-2.048h-8.153Zm-3.885-7.466a.888.888,0,0,0,.057,1.319l3.486,3h8.5V418.49a1.017,1.017,0,0,0-.876-1.016l-4.806-.613a.548.548,0,0,1-.472-.547v-6.3a1,1,0,1,0-2,0v10.074a.542.542,0,0,1-.311.5.518.518,0,0,1-.573-.077l-1.456-1.251a1.121,1.121,0,0,0-.731-.261A1.138,1.138,0,0,0,325.625,419.325Zm6.962-9.314v2.578h7.142a4.192,4.192,0,0,0,0-8.381H324.271a4.192,4.192,0,0,0,0,8.381h4.163v-2.578a2.077,2.077,0,1,1,4.154,0Zm3.642.338-1.538-1.576a.561.561,0,0,1,0-.779.528.528,0,0,1,.761,0l1.157,1.185,2.7-2.761a.53.53,0,0,1,.761,0,.562.562,0,0,1,0,.78l-3.077,3.151a.53.53,0,0,1-.761,0Z"/></g></svg>