<svg xmlns="http://www.w3.org/2000/svg" width="22.437" height="22.437" viewBox="0 0 22.437 22.437"><defs><style>.a{fill:#2720eb;fill-rule:evenodd;}</style></defs><g transform="translate(0 -2.25)"><path class="a" d="M0,3A.748.748,0,0,1,.748,2.25H2.992a.748.748,0,0,1,.725.567l.606,2.424H21.689a.748.748,0,0,1,.733.894l-1.5,7.479a.748.748,0,0,1-.7.6L6.175,14.92,6.6,17.208H19.445a.748.748,0,1,1,0,1.5H5.983a.748.748,0,0,1-.735-.61L3.006,6.15l-.6-2.4H.748A.748.748,0,0,1,0,3ZM4.64,6.737l1.256,6.7,13.677-.687,1.2-6.013ZM7.479,18.7A2.992,2.992,0,1,0,10.47,21.7,2.992,2.992,0,0,0,7.479,18.7Zm10.47,0A2.992,2.992,0,1,0,20.941,21.7,2.992,2.992,0,0,0,17.949,18.7ZM7.479,20.2a1.5,1.5,0,1,0,1.5,1.5A1.5,1.5,0,0,0,7.479,20.2Zm10.47,0a1.5,1.5,0,1,0,1.5,1.5A1.5,1.5,0,0,0,17.949,20.2Z" transform="translate(0)"/></g></svg>