<svg xmlns="http://www.w3.org/2000/svg" width="21.215" height="19.798" viewBox="0 0 21.215 19.798"><defs><style>.a,.b{fill:#2720eb;}.a{fill-rule:evenodd;}</style></defs><g transform="translate(0 -2.25)"><path class="a" d="M3.551,16.695a1.326,1.326,0,0,1,.381,1.062A14.546,14.546,0,0,1,3.4,20.409,15.652,15.652,0,0,0,6.9,19.225a1.326,1.326,0,0,1,.941-.1,10.687,10.687,0,0,0,2.77.36c5.3,0,9.282-3.722,9.282-7.956s-3.983-7.956-9.282-7.956S1.326,7.3,1.326,11.532a7.285,7.285,0,0,0,2.225,5.163ZM2.9,21.873q-.471.093-.945.171a.345.345,0,0,1-.362-.48q.177-.416.324-.844l0-.013a13.866,13.866,0,0,0,.695-3.075A8.611,8.611,0,0,1,0,11.532C0,6.405,4.749,2.25,10.607,2.25s10.607,4.155,10.607,9.282-4.749,9.282-10.607,9.282A12.013,12.013,0,0,1,7.5,20.407a18.128,18.128,0,0,1-4.6,1.465Z" transform="translate(0)"/><path class="b" d="M9.4,17.076A1.326,1.326,0,1,1,8.076,15.75,1.326,1.326,0,0,1,9.4,17.076Zm5.3,0A1.326,1.326,0,1,1,13.38,15.75,1.326,1.326,0,0,1,14.706,17.076Zm5.3,0a1.326,1.326,0,1,1-1.326-1.326A1.326,1.326,0,0,1,20.009,17.076Z" transform="translate(-2.772 -5.544)"/></g></svg>