<svg xmlns="http://www.w3.org/2000/svg" width="16" height="34" viewBox="0 0 16 34"><defs><style>.a,.b{fill:#2720eb;}.a{font-size:28px;font-family:Roboto-Light, Roboto;font-weight:300;}</style></defs><g transform="translate(-324.139 -474.666)"><text class="a" transform="translate(324.139 501.666)"><tspan x="0" y="0">$</tspan></text><path class="b" d="M325.889,496.033l.041-.082h1.518a4.12,4.12,0,0,0,1.39,3.486,5.352,5.352,0,0,0,3.357,1.066,4.647,4.647,0,0,0,3.214-1.06,3.446,3.446,0,0,0,1.186-2.687,3.277,3.277,0,0,0-.987-2.461,9.957,9.957,0,0,0-3.483-1.846,11.186,11.186,0,0,1-4.221-2.174,4.642,4.642,0,0,1-1.372-3.582,4.937,4.937,0,0,1,1.367-3.609,5.646,5.646,0,0,1,3.719-1.586v-2.762h1.436V481.5a5.489,5.489,0,0,1,3.813,1.764,5.931,5.931,0,0,1,1.314,4.156l-.027.068h-1.7a4.847,4.847,0,0,0-1.1-3.281,3.817,3.817,0,0,0-3.054-1.271,4.178,4.178,0,0,0-3.081,1.053,3.627,3.627,0,0,0-1.054,2.68,3.426,3.426,0,0,0,.933,2.509A9.348,9.348,0,0,0,332.7,491a11.648,11.648,0,0,1,4.175,2.194,4.564,4.564,0,0,1,1.358,3.534,4.786,4.786,0,0,1-1.411,3.623,6.06,6.06,0,0,1-3.811,1.559v2.6h-1.436v-2.584a6.658,6.658,0,0,1-4.108-1.579A5.284,5.284,0,0,1,325.889,496.033Z"/></g></svg>