<svg xmlns="http://www.w3.org/2000/svg" width="41.443" height="48.351" viewBox="0 0 41.443 48.351"><defs><style>.a,.b{fill:#2720eb;}.b{fill-rule:evenodd;}</style></defs><g transform="translate(-4.5 -2.25)"><path class="a" d="M11.407,2.25H28.675V5.7H11.407A3.454,3.454,0,0,0,7.954,9.157V43.693a3.454,3.454,0,0,0,3.454,3.454H39.036a3.454,3.454,0,0,0,3.454-3.454V19.518h3.454V43.693A6.907,6.907,0,0,1,39.036,50.6H11.407A6.907,6.907,0,0,1,4.5,43.693V9.157A6.907,6.907,0,0,1,11.407,2.25Z"/><path class="a" d="M20.25,14.338V2.25L37.518,19.518H25.43A5.18,5.18,0,0,1,20.25,14.338Z" transform="translate(8.425)"/><path class="b" d="M18.157,9a1.727,1.727,0,0,1,1.727,1.727v2.19l1.9-1.094a1.727,1.727,0,1,1,1.727,2.99l-1.9,1.094L23.506,17a1.727,1.727,0,1,1-1.727,2.99l-1.9-1.095v2.19a1.727,1.727,0,0,1-3.454,0V18.9l-1.9,1.094A1.727,1.727,0,1,1,12.808,17l1.9-1.094-1.9-1.094a1.727,1.727,0,1,1,1.727-2.99l1.9,1.095v-2.19A1.727,1.727,0,0,1,18.157,9ZM11.25,27.995a1.727,1.727,0,0,1,1.727-1.727H30.245a1.727,1.727,0,1,1,0,3.454H12.977A1.727,1.727,0,0,1,11.25,27.995Zm0,6.907a1.727,1.727,0,0,1,1.727-1.727H30.245a1.727,1.727,0,0,1,0,3.454H12.977A1.727,1.727,0,0,1,11.25,34.9Z" transform="translate(3.611 3.611)"/></g></svg>