<svg xmlns="http://www.w3.org/2000/svg" width="19" height="29" viewBox="0 0 19 29"><defs><style>.a{fill:#2720eb;}</style></defs><g transform="translate(-322 -325)"><g transform="translate(316.488 324.828)"><path class="a" d="M17.651,7.1a.708.708,0,0,0-.5.2l-3.021,2.949L12.871,9.017a.716.716,0,0,0-1,0,.675.675,0,0,0,0,.971l1.759,1.717a.716.716,0,0,0,1,0l3.519-3.435a.676.676,0,0,0,0-.971A.708.708,0,0,0,17.651,7.1Z"/><path class="a" d="M15.012.172a9.427,9.427,0,0,0-9.5,9.33,9.428,9.428,0,0,0,8.636,9.234l.16.014v9.739a.7.7,0,0,0,1.406,0h0V18.751l.16-.014A9.428,9.428,0,0,0,24.512,9.5,9.427,9.427,0,0,0,15.012.172Zm0,17.23A8.007,8.007,0,0,1,6.92,9.5,8.094,8.094,0,0,1,23.1,9.5,8.007,8.007,0,0,1,15.012,17.4Z"/></g><path class="a" d="M330.8,353.318v-9.739l-.159-.014a9.5,9.5,0,1,1,1.727,0l-.16.014v9.739h0a.7.7,0,0,1-1.407,0Zm-7.388-18.987a8.093,8.093,0,1,0,8.092-7.957A8.007,8.007,0,0,0,323.408,334.33Zm6.715,2.2-1.759-1.717a.676.676,0,0,1,0-.972.717.717,0,0,1,1,0l1.262,1.232,3.021-2.949a.716.716,0,0,1,.995,0,.677.677,0,0,1,0,.972l-3.518,3.434a.717.717,0,0,1-1,0Z"/></g></svg>