<svg xmlns="http://www.w3.org/2000/svg" width="24.056" height="17.183" viewBox="0 0 24.056 17.183"><defs><style>.a{fill:#2720eb;fill-rule:evenodd;}</style></defs><g transform="translate(-2.25 -5.625)"><path class="a" d="M9.123,21.089a.859.859,0,0,1,.859-.859H25.447a.859.859,0,1,1,0,1.718H9.982A.859.859,0,0,1,9.123,21.089Zm0-6.873a.859.859,0,0,1,.859-.859H25.447a.859.859,0,1,1,0,1.718H9.982A.859.859,0,0,1,9.123,14.216Zm0-6.873a.859.859,0,0,1,.859-.859H25.447a.859.859,0,1,1,0,1.718H9.982A.859.859,0,0,1,9.123,7.343ZM3.968,9.062A1.718,1.718,0,1,0,2.25,7.343,1.718,1.718,0,0,0,3.968,9.062Zm0,6.873A1.718,1.718,0,1,0,2.25,14.216,1.718,1.718,0,0,0,3.968,15.935Zm0,6.873A1.718,1.718,0,1,0,2.25,21.089,1.718,1.718,0,0,0,3.968,22.808Z"/></g></svg>