<svg xmlns="http://www.w3.org/2000/svg" width="22.372" height="22.372" viewBox="0 0 22.372 22.372"><defs><style>.a{fill:#df0010;}.a,.b{fill-rule:evenodd;}.b{fill:#2720eb;}</style></defs><g transform="translate(0 -2.25)"><path class="a" d="M17.229,11.25a.746.746,0,0,1,.746.746v2.983a.746.746,0,0,1-.746.746H14.246a.746.746,0,0,1,0-1.491h2.237V12A.746.746,0,0,1,17.229,11.25Z" transform="translate(-4.551 -3.034)"/><path class="a" d="M18,16.5a.746.746,0,0,1,.746-.746h2.983a.746.746,0,0,1,0,1.491H19.491v2.237a.746.746,0,0,1-1.491,0Z" transform="translate(-6.068 -4.551)"/><path class="b" d="M0,3A.746.746,0,0,1,.746,2.25H2.983a.746.746,0,0,1,.723.565l.6,2.418H21.626a.746.746,0,0,1,.732.883L20.122,18.048a.746.746,0,0,1-.732.609H5.966a.746.746,0,0,1-.732-.609L3,6.138l-.6-2.4H.746A.746.746,0,0,1,0,3ZM4.626,6.724l1.958,10.44H18.77l1.958-10.44ZM7.457,18.656a2.983,2.983,0,1,0,2.983,2.983A2.983,2.983,0,0,0,7.457,18.656Zm10.44,0a2.983,2.983,0,1,0,2.983,2.983A2.983,2.983,0,0,0,17.9,18.656ZM7.457,20.148a1.491,1.491,0,1,0,1.491,1.491A1.491,1.491,0,0,0,7.457,20.148Zm10.44,0a1.491,1.491,0,1,0,1.491,1.491A1.491,1.491,0,0,0,17.9,20.148Z"/></g></svg>