<svg xmlns="http://www.w3.org/2000/svg" width="21.705" height="21.705" viewBox="0 0 21.705 21.705"><defs><style>.a{fill:#2720eb;fill-rule:evenodd;}</style></defs><g transform="translate(-4.5 -4.5)"><path class="a" d="M24.4,26.205A1.771,1.771,0,0,0,26.205,24.4c0-1.809-1.809-7.235-10.853-7.235S4.5,22.588,4.5,24.4a1.771,1.771,0,0,0,1.809,1.809ZM6.318,24.5v0Zm.031-.1H24.356l.026,0,.014,0a4.829,4.829,0,0,0-1.5-3.01c-1.179-1.179-3.4-2.408-7.539-2.408s-6.36,1.23-7.539,2.409a4.843,4.843,0,0,0-1.5,3.01Zm18.041.1v0ZM15.353,13.544a3.618,3.618,0,1,0-3.618-3.618A3.618,3.618,0,0,0,15.353,13.544Zm5.426-3.618A5.426,5.426,0,1,1,15.353,4.5,5.426,5.426,0,0,1,20.779,9.926Z"/></g></svg>