<?xml version="1.0" encoding="UTF-8" standalone="no"?>
<!-- Generator: Adobe Illustrator 19.0.0, SVG Export Plug-In . SVG Version: 6.00 Build 0)  -->

<svg
   xmlns:dc="http://purl.org/dc/elements/1.1/"
   xmlns:cc="http://creativecommons.org/ns#"
   xmlns:rdf="http://www.w3.org/1999/02/22-rdf-syntax-ns#"
   xmlns:svg="http://www.w3.org/2000/svg"
   xmlns="http://www.w3.org/2000/svg"
   xmlns:sodipodi="http://sodipodi.sourceforge.net/DTD/sodipodi-0.dtd"
   xmlns:inkscape="http://www.inkscape.org/namespaces/inkscape"
   version="1.1"
   id="Capa_1"
   x="0px"
   y="0px"
   viewBox="0 0 49 49"
   style="enable-background:new 0 0 49 49;"
   xml:space="preserve"
   inkscape:version="0.91 r13725"
   sodipodi:docname="youtube.svg"><metadata
     id="metadata45"><rdf:RDF><cc:Work
         rdf:about=""><dc:format>image/svg+xml</dc:format><dc:type
           rdf:resource="http://purl.org/dc/dcmitype/StillImage" /><dc:title></dc:title></cc:Work></rdf:RDF></metadata><defs
     id="defs43" /><sodipodi:namedview
     pagecolor="#ffffff"
     bordercolor="#666666"
     borderopacity="1"
     objecttolerance="10"
     gridtolerance="10"
     guidetolerance="10"
     inkscape:pageopacity="0"
     inkscape:pageshadow="2"
     inkscape:window-width="1680"
     inkscape:window-height="987"
     id="namedview41"
     showgrid="false"
     inkscape:zoom="4.8163265"
     inkscape:cx="24.5"
     inkscape:cy="24.5"
     inkscape:window-x="-8"
     inkscape:window-y="-8"
     inkscape:window-maximized="1"
     inkscape:current-layer="g5" /><g
     id="g3"><g
       id="g5"><path
         d="M39.256,6.5H9.744C4.371,6.5,0,10.885,0,16.274v16.451c0,5.39,4.371,9.774,9.744,9.774h29.512    c5.373,0,9.744-4.385,9.744-9.774V16.274C49,10.885,44.629,6.5,39.256,6.5z M47,32.726c0,4.287-3.474,7.774-7.744,7.774H9.744    C5.474,40.5,2,37.012,2,32.726V16.274C2,11.988,5.474,8.5,9.744,8.5h29.512c4.27,0,7.744,3.488,7.744,7.774V32.726z"
         id="path7"
         style="fill:#ffffff" /><path
         d="M33.36,24.138l-13.855-8.115c-0.308-0.18-0.691-0.183-1.002-0.005S18,16.527,18,16.886v16.229    c0,0.358,0.192,0.69,0.502,0.868c0.154,0.088,0.326,0.132,0.498,0.132c0.175,0,0.349-0.046,0.505-0.137l13.855-8.113    c0.306-0.179,0.495-0.508,0.495-0.863S33.667,24.317,33.36,24.138z M20,31.37V18.63l10.876,6.371L20,31.37z"
         id="path9"
         style="fill:#ffffff" /></g></g><g
     id="g11" /><g
     id="g13" /><g
     id="g15" /><g
     id="g17" /><g
     id="g19" /><g
     id="g21" /><g
     id="g23" /><g
     id="g25" /><g
     id="g27" /><g
     id="g29" /><g
     id="g31" /><g
     id="g33" /><g
     id="g35" /><g
     id="g37" /><g
     id="g39" /></svg>