<svg xmlns="http://www.w3.org/2000/svg" xmlns:xlink="http://www.w3.org/1999/xlink" width="876" height="630.786" viewBox="0 0 876 630.786"><defs><style>.a{fill:url(#a);}.b{fill:url(#d);}.c{fill:#bdd0fb;}.d{fill:url(#g);}.e{fill:url(#h);}.f{fill:url(#i);}.g{fill:url(#j);}.h{fill:url(#k);}.i{fill:url(#l);}.j{fill:url(#m);}.k{fill:url(#n);}.l{fill:url(#o);}.m{fill:#7d97f4;}.n{fill:url(#p);}.o{fill:url(#r);}.p{fill:url(#s);}.q{fill:#fff;opacity:0.69;}.r{fill:url(#t);}.s{fill:url(#u);}.t{fill:url(#v);}.u{fill:url(#w);}.v{fill:url(#x);}.w{fill:url(#y);}.x{fill:url(#z);}.y{fill:url(#aa);}.z{fill:url(#ab);}.aa{fill:url(#ac);}.ab{fill:url(#ad);}.ac{fill:url(#ae);}.ad{fill:url(#af);}.ae{fill:url(#ag);}.af{fill:url(#ah);}.ag{fill:url(#ai);}.ah{fill:url(#aj);}.ai{fill:url(#ak);}.aj{fill:url(#al);}.ak{fill:url(#am);}.al{fill:url(#an);}.am{fill:url(#ao);}.an{fill:url(#ap);}.ao{fill:url(#aq);}.ap{fill:url(#ar);}.aq{fill:url(#as);}.ar{fill:url(#at);}.as{fill:url(#au);}.at{fill:#91b3fa;}.au{fill:url(#av);}.av{fill:url(#aw);}.aw{fill:url(#ax);}.ax{fill:url(#ay);}.ay{fill:url(#az);}.az{fill:url(#ba);}.ba{fill:url(#bb);}.bb{fill:url(#bc);}.bc{fill:url(#bd);}.bd{fill:url(#be);}.be{fill:url(#bf);}.bf{fill:url(#bg);}.bg{fill:url(#bh);}.bh{fill:url(#bi);}.bi{fill:url(#bj);}.bj{fill:url(#bk);}.bk{fill:url(#bl);}.bl{fill:url(#bm);}.bm{fill:url(#bn);}.bn{opacity:0.87;fill:url(#bo);}.bo{filter:url(#b);}</style><linearGradient id="a" x1="1.703" y1="0.524" x2="0.272" y2="0.495" gradientUnits="objectBoundingBox"><stop offset="0" stop-color="#fff"/><stop offset="1" stop-color="#cfdeff"/></linearGradient><filter id="b" x="0" y="0" width="876" height="630.786" filterUnits="userSpaceOnUse"><feOffset input="SourceAlpha"/><feGaussianBlur stdDeviation="35" result="c"/><feFlood flood-color="#2720eb" flood-opacity="0.161"/><feComposite operator="in" in2="c"/><feComposite in="SourceGraphic"/></filter><linearGradient id="d" x1="-0.14" y1="2.667" x2="1" y2="2.818" gradientUnits="objectBoundingBox"><stop offset="0" stop-color="#2123e8"/><stop offset="1" stop-color="#797bfb"/></linearGradient><linearGradient id="g" x1="0.43" y1="-0.849" x2="0.489" y2="0.288" gradientUnits="objectBoundingBox"><stop offset="0" stop-color="#09005d"/><stop offset="1" stop-color="#1a0f91"/></linearGradient><linearGradient id="h" x1="0.426" y1="-0.928" x2="0.485" y2="0.208" xlink:href="#g"/><linearGradient id="i" x1="1.296" y1="-6.824" x2="0.805" y2="-2.31" gradientUnits="objectBoundingBox"><stop offset="0" stop-color="#e1473d"/><stop offset="1" stop-color="#e9605a"/></linearGradient><linearGradient id="j" x1="-28.779" y1="-5.621" x2="-29.27" y2="-1.108" xlink:href="#i"/><linearGradient id="k" x1="0.501" y1="0.257" x2="0.494" y2="1.665" gradientUnits="objectBoundingBox"><stop offset="0" stop-color="#fe7062"/><stop offset="1" stop-color="#ff928e"/></linearGradient><linearGradient id="l" x1="0.496" y1="-4.473" x2="0.504" y2="4.712" xlink:href="#i"/><linearGradient id="m" x1="0.634" y1="-5.383" x2="0.585" y2="-3.185" gradientUnits="objectBoundingBox"><stop offset="0" stop-color="#ff928e"/><stop offset="1" stop-color="#feb3b1"/></linearGradient><linearGradient id="n" x1="-18.97" y1="-5.042" x2="-19.018" y2="-2.844" xlink:href="#m"/><linearGradient id="o" x1="0.505" y1="1.073" x2="0.538" y2="6.915" xlink:href="#i"/><linearGradient id="p" x1="0" y1="0.5" x2="1" y2="0.5" xlink:href="#m"/><linearGradient id="r" x1="-0.09" y1="3.955" x2="0.581" y2="3.177" xlink:href="#i"/><linearGradient id="s" x1="0.976" y1="2.682" x2="-1.076" y2="5.781" xlink:href="#k"/><linearGradient id="t" x1="1.373" y1="4.229" x2="-1.064" y2="7.275" xlink:href="#k"/><linearGradient id="u" x1="-1.302" y1="-1.493" x2="-0.632" y2="-2.271" xlink:href="#i"/><linearGradient id="v" x1="-0.279" y1="-2.954" x2="-2.33" y2="0.145" xlink:href="#k"/><linearGradient id="w" x1="-1.053" y1="-5.782" x2="-3.114" y2="-2.391" xlink:href="#k"/><linearGradient id="x" x1="0" y1="0.5" x2="1" y2="0.5" xlink:href="#i"/><linearGradient id="y" x1="0.586" y1="1.677" x2="-1.465" y2="4.776" xlink:href="#k"/><linearGradient id="z" x1="0.499" y1="2.684" x2="-1.852" y2="5.902" xlink:href="#k"/><linearGradient id="aa" x1="-0.184" y1="1.294" x2="0.486" y2="0.516" xlink:href="#i"/><linearGradient id="ab" x1="0.878" y1="-0.071" x2="-1.173" y2="3.028" xlink:href="#k"/><linearGradient id="ac" x1="1.304" y1="-0.302" x2="-1.589" y2="2.559" xlink:href="#k"/><linearGradient id="ad" x1="-1.179" y1="-1.101" x2="-0.508" y2="-1.88" xlink:href="#i"/><linearGradient id="ae" x1="-0.151" y1="-2.549" x2="-2.202" y2="0.55" xlink:href="#k"/><linearGradient id="af" x1="-0.965" y1="-4.431" x2="-3.25" y2="-1.41" xlink:href="#k"/><linearGradient id="ag" x1="-25.367" y1="-0.346" x2="-25.004" y2="0.297" xlink:href="#g"/><linearGradient id="ah" x1="-21.195" y1="-2.603" x2="-21.853" y2="-2.263" xlink:href="#m"/><linearGradient id="ai" x1="-75.159" y1="-0.701" x2="-76.574" y2="4.275" xlink:href="#g"/><linearGradient id="aj" x1="-60.605" y1="1.602" x2="-59.57" y2="-1.187" xlink:href="#m"/><linearGradient id="ak" x1="-51.307" y1="-1.228" x2="-52.181" y2="2.163" xlink:href="#g"/><linearGradient id="al" x1="-24.961" y1="1.698" x2="-24.498" y2="-1.193" xlink:href="#m"/><linearGradient id="am" x1="0.261" y1="0.641" x2="-1.642" y2="1.517" xlink:href="#k"/><linearGradient id="an" x1="2.772" y1="-0.763" x2="1.124" y2="0.208" xlink:href="#g"/><linearGradient id="ao" x1="1.168" y1="-0.362" x2="-0.668" y2="2.215" xlink:href="#m"/><linearGradient id="ap" x1="3.648" y1="-0.207" x2="2.242" y2="0.143" xlink:href="#m"/><linearGradient id="aq" x1="-57.388" y1="-6.57" x2="-57.214" y2="-4.804" xlink:href="#m"/><linearGradient id="ar" x1="-46.886" y1="-4.369" x2="-46.255" y2="-2.966" xlink:href="#g"/><linearGradient id="as" x1="-215.014" y1="-22.15" x2="-214.357" y2="-16.555" xlink:href="#m"/><linearGradient id="at" x1="-64.882" y1="-8.31" x2="-66.78" y2="-7.359" xlink:href="#m"/><linearGradient id="au" x1="1.025" y1="-3.42" x2="-0.735" y2="9.219" xlink:href="#m"/><linearGradient id="av" x1="199.764" y1="0.5" x2="200.764" y2="0.5" xlink:href="#g"/><linearGradient id="aw" x1="491.605" y1="0.5" x2="492.605" y2="0.5" xlink:href="#m"/><linearGradient id="ax" x1="130.389" y1="0.5" x2="131.389" y2="0.5" xlink:href="#g"/><linearGradient id="ay" x1="504.459" y1="0.5" x2="505.459" y2="0.5" xlink:href="#m"/><linearGradient id="az" x1="2.558" y1="-0.784" x2="1.653" y2="-0.178" xlink:href="#g"/><linearGradient id="ba" x1="10.02" y1="-2.652" x2="3.171" y2="-0.384" xlink:href="#g"/><linearGradient id="bb" x1="1.129" y1="-3.137" x2="0.867" y2="-1.694" xlink:href="#i"/><linearGradient id="bc" x1="140.069" y1="0.5" x2="141.069" y2="0.5" xlink:href="#m"/><linearGradient id="bd" x1="-22.815" y1="0.373" x2="-21.492" y2="1.57" xlink:href="#k"/><linearGradient id="be" x1="150.962" y1="-1.615" x2="148.678" y2="1.548" xlink:href="#m"/><linearGradient id="bf" x1="122.803" y1="-2.795" x2="120.964" y2="5.663" xlink:href="#m"/><linearGradient id="bg" x1="174.967" y1="-1.142" x2="172.318" y2="2.815" xlink:href="#m"/><linearGradient id="bh" x1="135.372" y1="135.4" x2="134.154" y2="136.696" xlink:href="#m"/><linearGradient id="bi" x1="-82.933" y1="0.25" x2="-81.871" y2="1.688" xlink:href="#g"/><linearGradient id="bj" x1="367.284" y1="427.786" x2="369.986" y2="425.248" xlink:href="#m"/><linearGradient id="bk" x1="0" y1="0.5" x2="1" y2="0.5" xlink:href="#i"/><linearGradient id="bl" x1="0" y1="0.5" x2="1" y2="0.5" xlink:href="#k"/><linearGradient id="bm" x1="-15.364" y1="-17.046" x2="-10.996" y2="-12.215" xlink:href="#m"/><linearGradient id="bn" x1="0.049" y1="-3.277" x2="0.198" y2="-2.024" xlink:href="#m"/><linearGradient id="bo" y1="0.5" x2="1" y2="0.5" gradientUnits="objectBoundingBox"><stop offset="0" stop-color="#dae3fe"/><stop offset="1" stop-color="#e9effd"/></linearGradient></defs><g transform="translate(-23.818 -15.603)"><g transform="translate(143.317 105.359)"><g transform="translate(0 0)"><g class="bo" transform="matrix(1, 0, 0, 1, -119.5, -89.76)"><path class="a" d="M329.986,510.64c85.889,8.713,92.5-22.359,184.2-11,57.164,7.083,71.445,21.246,131.964,21.078,40.421-.112,80.056-.766,115.464-27.488,28.538-21.538,58.464-55.918,43.893-93.685-8.685-22.509-29.811-38.921-35.019-62.944-4.521-20.857,3.291-42.373,9.264-62.135,10.73-35.506,29.2-87.119.325-119.47-36.91-41.319-233.694-68.927-265.89-47.77-75.006,49.288-15.053,28.412-57.027,37.748-45.066-21.788-93.561-44.962-143.8-37.748-56.073,8.052-56.343,42.807-45.513,88.893,4.033,17.161,11.162,39.311,5.127,56.859-10.013,29.113-39.347,22.8-63.288,30.034-13.576,4.1-26.8,9.68-37.693,18.981-22.812,19.478-30.762,49.733-28.22,78.819C152.045,475.49,250.9,502.618,329.986,510.64Z" transform="translate(-38.32 5.06)"/></g><g transform="translate(30.617 341.409)"><path class="b" d="M630.807,1230.553h373.586a1.758,1.758,0,0,0,1.552-1.316,1.719,1.719,0,0,0-.7-1.887c-8.863-5.535-17.727-10.985-26.59-16.52a1.553,1.553,0,0,0-.853-.16H657.394a1.529,1.529,0,0,0-.853.123c-8.863,5.534-17.727,11.009-26.59,16.543a1.783,1.783,0,0,0-.694,1.931A1.725,1.725,0,0,0,630.807,1230.553Z" transform="translate(-509.732 -1210.666)"/><path class="b" d="M437.429,1352.338H930.476c.72,0,1.354-.831,1.552-1.522a1.872,1.872,0,0,0-.7-1.99c-8.864-5.535-17.727-10.831-26.591-16.365-.255-.159-.552-.005-.853-.005H464.017c-.3,0-.6-.243-.853-.083-8.863,5.534-17.727,10.906-26.59,16.44a2.024,2.024,0,0,0-.695,2.086A1.894,1.894,0,0,0,437.429,1352.338Z" transform="translate(-376.086 -1294.741)"/><path class="b" d="M857.417,1469.015c-8.863-5.534-17.727-10.878-26.59-16.413-.256-.159-.552-.053-.853-.053H270.64c-.3,0-.6-.108-.853.053-8.863,5.535-17.727,10.974-26.59,16.508a1.862,1.862,0,0,0-.694,1.984,1.78,1.78,0,0,0,1.55,1.339H856.56a1.832,1.832,0,0,0,1.552-1.386A1.936,1.936,0,0,0,857.417,1469.015Z" transform="translate(-242.439 -1377.812)"/></g><g transform="translate(9.109 253.448)"><path class="c" d="M289.965,934.623H177.172a4.365,4.365,0,0,1-4.364-4.365h0a4.365,4.365,0,0,1,4.364-4.365H289.965a4.365,4.365,0,0,1,4.365,4.365h0A4.365,4.365,0,0,1,289.965,934.623Z" transform="translate(-172.807 -925.894)"/><path class="c" d="M333.842,989.974H221.048a4.364,4.364,0,0,1-4.364-4.365h0a4.364,4.364,0,0,1,4.364-4.365H333.842a4.364,4.364,0,0,1,4.364,4.365h0A4.364,4.364,0,0,1,333.842,989.974Z" transform="translate(-203.131 -964.148)"/><path class="c" d="M301.768,1100.675H221.048a4.364,4.364,0,0,1-4.364-4.364h0a4.364,4.364,0,0,1,4.364-4.365h80.719a4.365,4.365,0,0,1,4.364,4.365h0A4.364,4.364,0,0,1,301.768,1100.675Z" transform="translate(-203.131 -1040.656)"/><path class="c" d="M374.794,1045.324H262a4.364,4.364,0,0,1-4.365-4.365h0a4.365,4.365,0,0,1,4.365-4.365H374.794a4.365,4.365,0,0,1,4.365,4.365h0A4.365,4.365,0,0,1,374.794,1045.324Z" transform="translate(-231.434 -1002.401)"/></g><g transform="translate(195.873 233.768)"><g transform="translate(8.228 117.243)"><rect class="d" width="39.081" height="75.42" rx="19.541"/><rect class="e" width="39.081" height="75.42" rx="19.541" transform="translate(222.145)"/></g><g transform="translate(0 39.308)"><path class="f" d="M806.593,1002.8c-.484-.108-1.027-.537-1.027-1.033v-3.321a8.3,8.3,0,0,0-4.462-7.567,13.253,13.253,0,0,0-11.662-.176l-6.747,3.215a9.2,9.2,0,0,0-5.24,8.443v2.532a9.245,9.245,0,0,0,7.976,9.234l28.254,3.852,3.379-12.887Z" transform="translate(-777.455 -989.441)"/><path class="g" d="M1562.629,1002.8c.484-.108.622-.537.622-1.033v-3.321a8.672,8.672,0,0,1,4.867-7.567,13.693,13.693,0,0,1,11.865-.176l6.785,3.215a9.232,9.232,0,0,1,5.279,8.443v2.532a9.191,9.191,0,0,1-7.914,9.234l-28.223,3.852-3.566-12.887Z" transform="translate(-1312.995 -989.441)"/></g><path class="h" d="M1065.063,943.345c-4.1-13.828-25.264-26.656-25.264-26.656s-17.752-54.508-36.87-54.508H865.088c-19.118,0-36.871,54.508-36.871,54.508s-21.166,12.808-25.263,26.636c-3,10.109,3.5,48.909,7.207,68.973,1.307,7.074,7.982,12.379,15.777,12.379h216.139c7.795,0,14.47-5.294,15.778-12.368C1061.564,992.243,1068.058,953.455,1065.063,943.345Z" transform="translate(-794.548 -862.181)"/><path class="i" d="M1067.045,1308.338a6.6,6.6,0,0,0-4.931-2.212H815.186a6.6,6.6,0,0,0-4.91,2.188,5.312,5.312,0,0,0-1.216,4.823l4.041,16.027a6.157,6.157,0,0,0,6.126,4.387h238.644a6.155,6.155,0,0,0,6.111-4.314l4.243-16.061A5.266,5.266,0,0,0,1067.045,1308.338Z" transform="translate(-799.189 -1169)"/><g transform="translate(16.077 89.351)"><path class="j" d="M886.2,1176.439s-6.145-18.435-13.884-20.028-40.512-8.421-41.195-2.731-7.283,25.263,12.29,27.084S889.349,1184.082,886.2,1176.439Z" transform="translate(-829.503 -1151.454)"/><path class="k" d="M1444.289,1176.439s6.145-18.435,13.883-20.028,40.512-8.421,41.2-2.731,7.283,25.263-12.29,27.084S1441.136,1184.082,1444.289,1176.439Z" transform="translate(-1254.214 -1151.454)"/></g><path class="l" d="M1150.645,1176.915a3.632,3.632,0,0,0-2.892-1.753H1028.982a3.688,3.688,0,0,0-3.045,5.337l6.682,12.86a14.544,14.544,0,0,0,12.632,7.858h87.268a14.5,14.5,0,0,0,13.059-8.688l5.323-12.134A3.847,3.847,0,0,0,1150.645,1176.915Z" transform="translate(-948.908 -1078.488)"/><g transform="translate(44.161 14.398)"><path class="m" d="M1110.345,953.448a4.261,4.261,0,0,1-3.5,1.969H924.6a4.286,4.286,0,0,1-3.769-6.088c4.138-8.719,11.9-24.882,16.251-33.915a10.612,10.612,0,0,1,.662-1.2,11.607,11.607,0,0,1,9.8-5.423h137.822a11.62,11.62,0,0,1,9.853,5.48,12.148,12.148,0,0,1,.785,1.5l14.666,33.673A4.248,4.248,0,0,1,1110.345,953.448Z" transform="translate(-920.427 -908.795)"/><path class="c" d="M1133.963,914.276c-9.655,1.905-38.025,6.656-80.815,6.656-43.146,0-68.464-4.85-76.664-6.727a11.6,11.6,0,0,1,9.8-5.409H1124.11A11.62,11.62,0,0,1,1133.963,914.276Z" transform="translate(-959.169 -908.795)"/></g><g transform="translate(45.527 65.538)"><path class="n" d="M949.154,1098.08a.681.681,0,0,1-.469-.187l-23.623-22.354a.683.683,0,1,1,.939-.992l23.623,22.355a.683.683,0,0,1-.469,1.179Z" transform="translate(-924.848 -1074.36)"/><g transform="translate(161.139)"><path class="n" d="M1447.216,1098.08a.683.683,0,0,1-.469-1.179l23.623-22.355a.683.683,0,0,1,.939.992l-23.623,22.354A.682.682,0,0,1,1447.216,1098.08Z" transform="translate(-1446.533 -1074.36)"/></g></g></g><g transform="translate(236.069 68.266)"><circle class="o" cx="16.884" cy="16.884" r="16.884" transform="translate(3.002 10.167) rotate(-12.251)"/><circle class="p" cx="16.323" cy="16.323" r="16.323" transform="translate(0 23.084) rotate(-45)"/><path class="q" d="M932.056,366.725h-.035a.685.685,0,0,1-.65-.719,15.686,15.686,0,0,1,9.353-13.623,15.9,15.9,0,0,1,2.7-.918.686.686,0,0,1,.322,1.333,14.536,14.536,0,0,0-2.467.838,14.324,14.324,0,0,0-8.539,12.439A.685.685,0,0,1,932.056,366.725Z" transform="translate(-924.025 -343.699)"/><circle class="q" cx="13.815" cy="13.815" r="13.815" transform="translate(4.293 26.547) rotate(-54.671)"/><g transform="translate(16.524 14.067)"><path class="r" d="M971.038,391.047l-.609-1.374a12.263,12.263,0,0,1-4.226.874.87.87,0,0,1-.856-.744l-.218-1.435a.877.877,0,0,1,.855-1.006,10.173,10.173,0,0,0,3.892-.828c1.38-.612,2.2-1.535,1.776-2.495-.384-.865-1.407-1.027-3.552-.691-3.068.465-5.561.143-6.629-2.266-.964-2.175-.11-4.54,2.453-6.207l-.609-1.374a.876.876,0,0,1,.446-1.156l.807-.358a.876.876,0,0,1,1.156.446l.547,1.234a11.181,11.181,0,0,1,3.3-.806.871.871,0,0,1,.924.741l.2,1.326a.873.873,0,0,1-.815,1.006,9.124,9.124,0,0,0-3.239.785c-1.637.726-1.8,1.611-1.534,2.219.332.748,1.542.827,3.96.539,3.444-.436,5.267.267,6.273,2.536.922,2.081.209,4.636-2.577,6.431l.681,1.538a.876.876,0,0,1-.445,1.156l-.807.358A.875.875,0,0,1,971.038,391.047Z" transform="translate(-961.086 -371.91)"/></g></g><g transform="translate(361.254 109.336)"><circle class="s" cx="30.245" cy="30.245" r="30.245" transform="translate(0.263 29.46) rotate(-28.86)"/><circle class="t" cx="29.239" cy="29.239" r="29.239" transform="translate(0 41.35) rotate(-45)"/><path class="q" d="M1437.761,513.473a.683.683,0,0,1-.5-.217,26.6,26.6,0,0,0-3.559-3.169,26.2,26.2,0,0,0-27.494-2.363.686.686,0,0,1-.616-1.225,27.56,27.56,0,0,1,28.926,2.486,27.95,27.95,0,0,1,3.744,3.333.685.685,0,0,1-.5,1.154Z" transform="translate(-1376.692 -489.874)"/><circle class="q" cx="24.747" cy="24.747" r="24.747" transform="translate(15.054 19.299) rotate(-4.04)"/><g transform="translate(24.887 27.403)"><path class="u" d="M1397.138,576.223l1.6-2.163a21.96,21.96,0,0,1-5.1-5.813,1.558,1.558,0,0,1,.4-1.991l2.043-1.608a1.57,1.57,0,0,1,2.323.443,18.224,18.224,0,0,0,4.73,5.333c2.172,1.609,4.338,2.073,5.456.563,1.009-1.362.358-3.1-2.061-6.146-3.435-4.37-5.136-8.538-2.327-12.331,2.537-3.424,6.977-4.183,11.839-1.664l1.6-2.164a1.569,1.569,0,0,1,2.194-.327l1.271.942a1.569,1.569,0,0,1,.326,2.194l-1.439,1.943a20.015,20.015,0,0,1,4.171,4.428,1.561,1.561,0,0,1-.338,2.095l-1.886,1.489a1.564,1.564,0,0,1-2.288-.38,16.336,16.336,0,0,0-4.084-4.353c-2.577-1.909-4.1-1.387-4.813-.43-.873,1.178.073,3.134,2.66,6.646,3.722,4.982,4.238,8.443,1.592,12.014-2.427,3.277-7.039,4.422-12.3,1.667l-1.794,2.421a1.569,1.569,0,0,1-2.194.327l-1.271-.942A1.569,1.569,0,0,1,1397.138,576.223Z" transform="translate(-1393.445 -548.048)"/></g></g><g transform="translate(190.705 113.535)"><circle class="v" cx="29.393" cy="29.393" r="29.393" transform="translate(4.34 19.138) rotate(-14.58)"/><circle class="w" cx="28.415" cy="28.415" r="28.415" transform="translate(0 40.185) rotate(-45)"/><path class="q" d="M804.434,549.513a.685.685,0,0,1-.683-.63,26.8,26.8,0,0,1,12.809-25.162,27.14,27.14,0,0,1,4.372-2.157.686.686,0,0,1,.493,1.279,25.815,25.815,0,0,0-4.15,2.048,25.439,25.439,0,0,0-12.157,23.882.686.686,0,0,1-.628.738Z" transform="translate(-790.398 -506.51)"/><circle class="q" cx="24.05" cy="24.05" r="24.05" transform="translate(7.024 40.391) rotate(-45)"/><g transform="translate(28.436 25.227)"><path class="x" d="M872.685,586.256l-1.363-2.234a21.34,21.34,0,0,1-7.1,2.466,1.514,1.514,0,0,1-1.646-1.09l-.7-2.427a1.525,1.525,0,0,1,1.247-1.931,17.715,17.715,0,0,0,6.53-2.313c2.242-1.369,3.451-3.15,2.5-4.708-.858-1.406-2.661-1.454-6.288-.387-5.189,1.5-9.565,1.508-11.955-2.406-2.158-3.535-1.22-7.811,2.824-11.271l-1.363-2.234a1.525,1.525,0,0,1,.507-2.1l1.312-.8a1.525,1.525,0,0,1,2.1.507l1.224,2.006a19.464,19.464,0,0,1,5.511-2.14,1.518,1.518,0,0,1,1.763,1.069l.653,2.242a1.521,1.521,0,0,1-1.178,1.922,15.865,15.865,0,0,0-5.411,2.089c-2.661,1.624-2.748,3.19-2.144,4.178.742,1.216,2.849,1.078,6.957.031,5.846-1.534,9.151-.734,11.4,2.952,2.065,3.383,1.412,7.955-2.989,11.684l1.526,2.5a1.525,1.525,0,0,1-.507,2.1l-1.312.8A1.525,1.525,0,0,1,872.685,586.256Z" transform="translate(-852.784 -554.602)"/></g></g><g transform="translate(291.749 88.086)"><circle class="y" cx="22.16" cy="22.16" r="22.16" transform="translate(0 43.748) rotate(-80.783)"/><circle class="z" cx="21.423" cy="21.423" r="21.423" transform="translate(1.236 43.668) rotate(-82.027)"/><path class="q" d="M1111.432,418.849a.677.677,0,0,1-.308-.074.685.685,0,0,1-.3-.921A20.375,20.375,0,0,1,1129.1,406.6a20.656,20.656,0,0,1,3.691.332.686.686,0,1,1-.246,1.349,19.257,19.257,0,0,0-3.445-.31,19.012,19.012,0,0,0-17.053,10.5A.685.685,0,0,1,1111.432,418.849Z" transform="translate(-1103.675 -401.639)"/><circle class="q" cx="18.132" cy="18.132" r="18.132" transform="matrix(0.122, -0.993, 0.993, 0.122, 5.679, 41.671)"/><g transform="translate(17.904 13.058)"><path class="aa" d="M1152.021,459.123v-1.973a16.086,16.086,0,0,1-5.535-1.2,1.142,1.142,0,0,1-.63-1.348l.5-1.837a1.15,1.15,0,0,1,1.561-.753,13.356,13.356,0,0,0,5.111,1.076c1.98,0,3.458-.672,3.458-2.048,0-1.242-1.141-1.981-3.894-2.719-3.928-1.074-6.748-2.786-6.748-6.244,0-3.122,2.283-5.506,6.244-6.144V433.96a1.149,1.149,0,0,1,1.149-1.149h1.159a1.15,1.15,0,0,1,1.15,1.149v1.771a14.666,14.666,0,0,1,4.387.788,1.144,1.144,0,0,1,.715,1.381l-.461,1.7a1.146,1.146,0,0,1-1.513.774,11.967,11.967,0,0,0-4.3-.781c-2.35,0-3.021.974-3.021,1.847,0,1.074,1.41,1.813,4.465,2.753,4.364,1.309,6.177,3.122,6.177,6.379,0,2.988-2.216,5.674-6.513,6.345v2.208a1.149,1.149,0,0,1-1.149,1.149h-1.159A1.149,1.149,0,0,1,1152.021,459.123Z" transform="translate(-1145.815 -432.811)"/></g></g><g transform="translate(345.103 62.345)"><circle class="ab" cx="20.671" cy="20.671" r="20.671" transform="matrix(0.257, -0.966, 0.966, 0.257, 2.976, 42.932)"/><circle class="ac" cx="19.983" cy="19.983" r="19.983" transform="translate(0 28.261) rotate(-45)"/><path class="q" d="M1311.3,342.629a.686.686,0,0,1-.45-1.2,19.048,19.048,0,0,1,19.8-3.286,19.287,19.287,0,0,1,3.077,1.591.686.686,0,0,1-.737,1.156,17.91,17.91,0,0,0-2.859-1.478,17.689,17.689,0,0,0-18.381,3.051A.683.683,0,0,1,1311.3,342.629Z" transform="translate(-1295.163 -327.594)"/><circle class="q" cx="16.913" cy="16.913" r="16.913" transform="matrix(0.862, -0.508, 0.508, 0.862, 5.342, 22.839)"/><g transform="translate(18.257 17.467)"><path class="ad" d="M1323.645,386.127l.7-1.7a15.014,15.014,0,0,1-4.358-2.987,1.065,1.065,0,0,1-.069-1.387l1.081-1.41a1.073,1.073,0,0,1,1.614-.1,12.463,12.463,0,0,0,4.035,2.731c1.711.7,3.223.638,3.708-.55.438-1.073-.288-2.113-2.405-3.721-3.014-2.312-4.846-4.785-3.628-7.771,1.1-2.7,3.912-3.95,7.558-3.105l.7-1.7a1.072,1.072,0,0,1,1.4-.588l1,.409a1.072,1.072,0,0,1,.588,1.4l-.624,1.53a13.688,13.688,0,0,1,3.512,2.226,1.067,1.067,0,0,1,.131,1.444l-1,1.305a1.069,1.069,0,0,1-1.58.135,11.164,11.164,0,0,0-3.441-2.191c-2.03-.828-2.953-.224-3.26.53-.379.928.579,2.062,2.886,3.951,3.308,2.669,4.235,4.874,3.087,7.686-1.053,2.58-3.913,4.119-7.861,3.185l-.778,1.907a1.072,1.072,0,0,1-1.4.587l-1-.408A1.073,1.073,0,0,1,1323.645,386.127Z" transform="translate(-1319.69 -363.751)"/></g></g><g transform="translate(39.128 189.508)"><path class="ae" d="M379.988,784.812s-4.816,2.343-5.7,5.034c-.71,2.159-6.036,2.438-6.562,6.684a4.873,4.873,0,0,1-4.078,4.283c-5.439.834-13.822,3.658-15.163,13.1-1.024,7.208,2.651,9.942,6.507,10.888a5.463,5.463,0,0,1,4.142,6.309c-.55,2.743.27,5.914,5.021,8.421,10.648,5.619,21.282-13.311,21.282-13.311l2.179-33.053Z" transform="translate(-324.119 -764.45)"/><path class="af" d="M534.311,759.443s-21.261,33.629-46.542,40.124c0,0,4.926,14.031,8.729,15.636,0,0,31.1-25.952,39.1-50.982Z" transform="translate(-420.502 -746.917)"/><path class="ag" d="M282.094,1450.933l-.689,5.664a2.341,2.341,0,0,1-2.053,2.047,36.247,36.247,0,0,1-7.581.119,2,2,0,0,1-1.683-2.6c.7-2.187,1.967-5.469,3.8-7.4h6.284A1.936,1.936,0,0,1,282.094,1450.933Z" transform="translate(-269.994 -1223.319)"/><path class="ah" d="M441.376,1240.956l1.061,6.239s-3.552,35.976-4.183,50.367a11.276,11.276,0,0,0,1.669,6.409L446.1,1314l-15.7-9.262-.312-1.915,2.569-3.533-3.366-40.3a12.365,12.365,0,0,1,1.407-6.839l3.247-6.1Z" transform="translate(-380.059 -1079.699)"/><path class="ai" d="M446.244,1448.818h-5.009a3.016,3.016,0,0,1-2.394-1.174c-1.562-2.029-4.8-5.988-6.344-6.091-2.082-.139-1.816,7.265-1.816,7.265h-1.167l-1.479-9.2a5.446,5.446,0,0,1,2.858-5.692s.476,3.521,3.057,5.078,10.5,7.134,10.5,7.134a7.167,7.167,0,0,1,2.036.054A1.325,1.325,0,0,1,446.244,1448.818Z" transform="translate(-379.172 -1213.065)"/><path class="aj" d="M314.736,1244.749s-20.807,39.469-24.115,48.481a86.583,86.583,0,0,0-4.511,17.241c-.069,1.112-1.453,2.179-5.267,2.179a3.659,3.659,0,0,1-3.4-1.552,2.224,2.224,0,0,1-.084-2.154c1.2-2.436,5.023-10.22,6.438-13.751,1.689-4.215,5.322-23.319,7.314-29.961s4.245-13.847,12.922-20.483C304.03,1244.749,309.986,1238.915,314.736,1244.749Z" transform="translate(-274.918 -1080.529)"/><path class="ak" d="M423.047,934.69c5.367-22.744-8.23-35.607-8.23-35.607,8.579-8.235,24.211-11.983,24.211-11.983s14.916,10.905,13.147,19.441c-1.037,5-10.485,29.966-10.485,29.966A20.757,20.757,0,0,1,423.047,934.69Z" transform="translate(-370.084 -835.143)"/><path class="al" d="M374.716,1052.432c2.184-6.58,11.9-11.26,11.9-11.26a20.757,20.757,0,0,0,18.644,1.816s1.959,7.489.607,14.448-9.836,51.685-9.836,51.685c-13.367,2.708-33.926-2.725-33.926-2.725C370.62,1091.279,372.532,1059.012,374.716,1052.432Z" transform="translate(-333.654 -941.625)"/><path class="am" d="M451.715,834.259l-4.364,19.6c-.418,1.727,1.156,1.444,2.9,1.115,2.858-.539,6.543-1.649,7.775-3.873a2.116,2.116,0,0,0,.223-.739l1.875-13.592a2.442,2.442,0,0,0-1.429-2.566l-3.618-1.6A2.442,2.442,0,0,0,451.715,834.259Z" transform="translate(-392.522 -797.332)"/><path class="an" d="M381.772,925.894s-30.457,21.791-3.9,44.688a6.864,6.864,0,0,0,3.005,1.742c1.006.3,3.981,2.552,5.49,3.726a1.033,1.033,0,0,0,1.512-.272,1.411,1.411,0,0,0,.08-1.354l-3.771-7.973a2.908,2.908,0,0,0-3.777-.164,1.435,1.435,0,0,1-2.176-.493c-2.053-4.182-5.931-16.482,9.939-30.38a1.72,1.72,0,0,0,.381-2.09C387.445,931.182,384.9,926.929,381.772,925.894Z" transform="translate(-337.039 -861.954)"/><g transform="translate(50.552 11.502)"><path class="ao" d="M463.223,779.03s4.646,3.145,6.642,11.153-1.248,10.881-4.573,10.705-8.147-1.2-12.325-6.95S457.134,775.187,463.223,779.03Z" transform="translate(-446.223 -771.473)"/><path class="ap" d="M444.612,775.364s-1.7-11.476,7.825-9.721l1.926,2.006s4.664-5.252-.5-9.222-12.322-2.954-16.285,4.274-5.4,12.306-2.079,16.8,5.819.639,5.819.639-1.523-3.887-.259-5.555,2.894.97,2.894.97Z" transform="translate(-433.655 -756.129)"/><path class="aq" d="M453.874,811.47s-.84-5.9-3.856-4.216,1.087,5.515,2.731,6.818Z" transform="translate(-444.219 -791.253)"/></g><g transform="translate(110.327)"><path class="ar" d="M630.512,738.339c.064.694-2.515,1.173-3.336-1.784.226-1.284.626-6.907,1.611-7.78,5.243-4.652,14.592-9.885,14.592-9.885a1.912,1.912,0,0,1-.326,2.648l-4.667,3.15a18.871,18.871,0,0,1,1.278,4.879,5.465,5.465,0,0,1-1.379,3.817c-.929,1.061-2.179,2.431-3.306,3.472A5.4,5.4,0,0,1,630.512,738.339Z" transform="translate(-627.176 -718.89)"/><path class="as" d="M639.386,752.947l-.714-.293c.095-.231,2.335-5.673,3.418-6.806a1.644,1.644,0,0,0,.592-1.094.779.779,0,0,0-.24-.48l-3.777,2.019L637,748.905l-.65-.415,1.776-2.782,4.423-2.365.2.163a1.674,1.674,0,0,1,.706,1.2,2.3,2.3,0,0,1-.8,1.675C641.833,747.235,640.017,751.41,639.386,752.947Z" transform="translate(-633.515 -735.79)"/></g></g><g transform="translate(64.382 111.232)"><path class="at" d="M412.151,1023.568l-1.29-1.636a1.039,1.039,0,1,1,1.632-1.287l.007.009.016.021,1.24,1.608.016.021a1.028,1.028,0,0,1-1.621,1.265Z" transform="translate(-392.45 -848.888)"/><path class="at" d="M399.174,1005.318l-1.149-1.738a1.076,1.076,0,1,1,1.795-1.186l.007.01.014.022,1.1,1.706.014.023a1.065,1.065,0,0,1-1.783,1.164Z" transform="translate(-383.61 -836.215)"/><path class="at" d="M387.745,986.064l-1-1.826a1.112,1.112,0,1,1,1.95-1.07l.006.01.013.024.958,1.79.013.024a1.1,1.1,0,0,1-1.936,1.049Z" transform="translate(-375.84 -822.861)"/><path class="at" d="M377.9,965.956l-.854-1.9a1.149,1.149,0,1,1,2.1-.941l0,.011.01.025.812,1.86.011.025a1.137,1.137,0,0,1-2.08.921Z" transform="translate(-369.165 -808.933)"/><path class="at" d="M369.654,945.148l-.7-1.961a1.185,1.185,0,1,1,2.23-.8l0,.012.009.025.666,1.917.009.026a1.174,1.174,0,0,1-2.213.782Z" transform="translate(-363.59 -794.533)"/><path class="at" d="M363,923.781l-.557-2.008a1.221,1.221,0,1,1,2.354-.653l0,.012.007.026.522,1.962.007.026a1.21,1.21,0,0,1-2.336.635Z" transform="translate(-359.108 -779.76)"/><path class="at" d="M357.91,901.99l-.411-2.042a1.258,1.258,0,1,1,2.466-.5l0,.013,0,.026.38,1.995,0,.026a1.247,1.247,0,0,1-2.447.479Z" transform="translate(-355.707 -764.705)"/><path class="at" d="M354.365,879.9l-.268-2.066a1.294,1.294,0,1,1,2.566-.334l0,.014,0,.026.24,2.016,0,.026a1.283,1.283,0,0,1-2.546.317Z" transform="translate(-353.365 -749.453)"/><path class="at" d="M352.33,857.626l-.129-2.079a1.33,1.33,0,0,1,2.656-.164v.04l.1,2.028v.026a1.319,1.319,0,0,1-2.634.149Z" transform="translate(-352.061 -734.083)"/><path class="at" d="M351.754,835.267l.008-2.084a1.367,1.367,0,1,1,2.734.011v.041l-.029,2.03v.027a1.356,1.356,0,0,1-2.711-.025Z" transform="translate(-351.754 -718.663)"/><path class="at" d="M352.342,812.925l.142-2.079a1.4,1.4,0,0,1,2.8.191v.015l0,.027-.16,2.024,0,.027a1.392,1.392,0,0,1-2.777-.2Z" transform="translate(-352.158 -703.262)"/><path class="at" d="M354.352,790.687l.273-2.066a1.44,1.44,0,0,1,2.854.378l0,.015,0,.027-.288,2.009,0,.027a1.429,1.429,0,0,1-2.83-.39Z" transform="translate(-353.541 -687.941)"/><path class="at" d="M357.761,768.652l.409-2.046a1.47,1.47,0,0,1,2.883.575l0,.008-.006.027-.409,1.99-.006.027a1.464,1.464,0,0,1-2.87-.581Z" transform="translate(-355.886 -672.773)"/><path class="at" d="M362.6,746.927l.536-2.015a1.489,1.489,0,0,1,2.878.765l0,.008-.007.027-.532,1.958-.007.027a1.483,1.483,0,0,1-2.865-.77Z" transform="translate(-359.217 -657.833)"/><path class="at" d="M368.8,725.571l.662-1.977a1.508,1.508,0,1,1,2.86.958l0,.008-.009.027-.654,1.92-.009.027a1.5,1.5,0,0,1-2.846-.962Z" transform="translate(-363.482 -643.153)"/><path class="at" d="M376.345,704.672l.788-1.932a1.527,1.527,0,1,1,2.828,1.152l0,.008-.011.027-.776,1.873-.011.028a1.521,1.521,0,0,1-2.814-1.156Z" transform="translate(-368.671 -628.795)"/><path class="at" d="M385.221,684.315l.913-1.88a1.546,1.546,0,0,1,2.781,1.351l0,.008-.014.027-.9,1.82-.014.028a1.54,1.54,0,0,1-2.767-1.354Z" transform="translate(-374.777 -614.817)"/><path class="at" d="M395.423,664.6l1.036-1.815a1.565,1.565,0,1,1,2.718,1.552l0,.007-.016.028-1.015,1.755-.016.027a1.559,1.559,0,0,1-2.7-1.554Z" transform="translate(-381.793 -601.296)"/><path class="at" d="M406.937,645.646l1.158-1.74a1.584,1.584,0,1,1,2.637,1.755l0,.007-.019.027-1.131,1.679-.018.027a1.578,1.578,0,0,1-2.622-1.756Z" transform="translate(-389.709 -588.302)"/><path class="at" d="M419.728,627.55l1.266-1.655a1.6,1.6,0,0,1,2.546,1.948l-.006.007-.018.023-1.239,1.6-.018.024a1.6,1.6,0,0,1-2.531-1.948Z" transform="translate(-398.505 -575.909)"/><path class="at" d="M433.637,610.308,435,608.731a1.622,1.622,0,0,1,2.451,2.125l-.006.007-.019.022-1.337,1.525-.019.022a1.616,1.616,0,0,1-2.436-2.124Z" transform="translate(-408.072 -564.094)"/><path class="at" d="M448.58,593.952l1.459-1.491a1.641,1.641,0,0,1,2.346,2.294l-.006.007-.02.02-1.426,1.442-.021.021a1.635,1.635,0,0,1-2.332-2.293Z" transform="translate(-418.35 -552.895)"/><path class="at" d="M464.474,578.521l1.543-1.4a1.66,1.66,0,1,1,2.234,2.455l-.007.006-.021.019-1.508,1.357-.021.019a1.654,1.654,0,0,1-2.22-2.453Z" transform="translate(-429.283 -542.334)"/><path class="at" d="M481.241,564.044l1.619-1.313a1.679,1.679,0,1,1,2.115,2.607l-.007.006-.022.018-1.582,1.269-.022.018a1.673,1.673,0,0,1-2.1-2.6Z" transform="translate(-440.817 -532.43)"/><path class="at" d="M498.8,550.537l1.689-1.222a1.7,1.7,0,0,1,1.99,2.751l-.008.006-.022.016-1.65,1.18-.023.016a1.692,1.692,0,0,1-1.976-2.747Z" transform="translate(-452.897 -523.194)"/><path class="at" d="M517.08,538.013l1.751-1.13a1.717,1.717,0,1,1,1.861,2.885l-.008.005-.023.015-1.712,1.091-.023.014a1.711,1.711,0,0,1-1.847-2.88Z" transform="translate(-465.472 -514.636)"/><path class="at" d="M536,526.477l1.807-1.037a1.736,1.736,0,0,1,1.728,3.011l-.008,0-.023.013-1.766,1-.023.013A1.73,1.73,0,0,1,536,526.477Z" transform="translate(-478.492 -506.757)"/><path class="at" d="M555.511,515.968l1.859-.94a1.744,1.744,0,1,1,1.574,3.112h0l-.023.012-1.813.914-.023.012a1.743,1.743,0,0,1-1.571-3.111Z" transform="translate(-491.913 -499.59)"/><path class="at" d="M575.561,506.462l1.9-.847a1.748,1.748,0,0,1,1.422,3.193h0l-.023.01-1.857.824-.023.01a1.747,1.747,0,0,1-1.419-3.192Z" transform="translate(-505.715 -493.11)"/><path class="at" d="M596.058,497.948l1.94-.755a1.752,1.752,0,1,1,1.27,3.265h0l-.023.009-1.895.734-.023.009a1.751,1.751,0,0,1-1.267-3.264Z" transform="translate(-519.826 -487.312)"/><path class="at" d="M616.948,490.424l1.972-.662a1.756,1.756,0,1,1,1.117,3.329h0l-.023.008-1.926.644-.023.008a1.755,1.755,0,0,1-1.114-3.328Z" transform="translate(-534.207 -482.195)"/><path class="at" d="M638.171,483.885l2-.57a1.76,1.76,0,1,1,.964,3.385h0l-.023.006-1.956.555-.024.006a1.759,1.759,0,0,1-.961-3.383Z" transform="translate(-548.819 -477.756)"/><path class="at" d="M659.689,478.332l2.029-.478a1.764,1.764,0,1,1,.81,3.434h0l-.023.006-1.982.465-.023.005a1.763,1.763,0,0,1-.807-3.431Z" transform="translate(-563.635 -473.996)"/><path class="at" d="M681.452,473.767l2.045-.385a1.768,1.768,0,0,1,.655,3.475h0l-.023,0-2,.374-.024,0a1.767,1.767,0,0,1-.652-3.473Z" transform="translate(-578.619 -470.917)"/><path class="at" d="M703.4,470.195l2.06-.293a1.772,1.772,0,1,1,.5,3.509h0l-.024,0-2.013.284-.024,0a1.771,1.771,0,0,1-.5-3.506Z" transform="translate(-593.729 -468.521)"/><path class="at" d="M725.49,467.617l2.071-.2a1.776,1.776,0,1,1,.341,3.535h0l-.024,0-2.024.192-.024,0a1.775,1.775,0,0,1-.338-3.533Z" transform="translate(-608.941 -466.811)"/><path class="at" d="M747.688,466.042l2.081-.106a1.78,1.78,0,1,1,.18,3.555h-.026l-2.033.1h-.024a1.779,1.779,0,0,1-.178-3.553Z" transform="translate(-624.224 -465.791)"/><path class="at" d="M769.958,465.481l2.082-.01a1.784,1.784,0,0,1,.018,3.568h-.027l-2.032.007h-.025a1.783,1.783,0,0,1-.015-3.566Z" transform="translate(-639.556 -465.471)"/><path class="at" d="M792.223,465.73l2.077.078a1.788,1.788,0,1,1-.133,3.573h-.024l-2.033-.078h-.022a1.787,1.787,0,0,1,.136-3.571Z" transform="translate(-654.889 -465.649)"/><path class="at" d="M814.454,466.879l2.072.162a1.792,1.792,0,0,1-.279,3.573h0l-.021,0-2.029-.161-.021,0a1.791,1.791,0,0,1,.281-3.57Z" transform="translate(-670.2 -466.44)"/><path class="at" d="M836.617,468.922l2.064.244a1.8,1.8,0,0,1-.422,3.567h0l-.021,0-2.022-.241-.021,0a1.795,1.795,0,0,1,.424-3.565Z" transform="translate(-685.466 -467.847)"/><path class="at" d="M858.682,471.833l2.052.323a1.8,1.8,0,1,1-.56,3.556h0l-.02,0-2.011-.319-.02,0a1.8,1.8,0,0,1,.562-3.554Z" transform="translate(-700.665 -469.852)"/><path class="at" d="M880.617,475.582l2.038.4a1.8,1.8,0,1,1-.694,3.541h0l-.02,0-2-.394-.02,0a1.8,1.8,0,0,1,.7-3.538Z" transform="translate(-715.775 -472.435)"/><path class="at" d="M902.4,480.139l2.022.473a1.808,1.808,0,1,1-.823,3.521h0l-.019,0-1.983-.466-.019,0a1.807,1.807,0,0,1,.824-3.518Z" transform="translate(-730.78 -475.575)"/><path class="at" d="M924,485.472l2,.543a1.812,1.812,0,0,1-.948,3.5h0l-.018,0-1.966-.535-.018-.005a1.811,1.811,0,0,1,.95-3.495Z" transform="translate(-745.662 -479.25)"/><path class="at" d="M945.4,491.548l1.983.61a1.816,1.816,0,1,1-1.068,3.472h0l-.017-.006-1.948-.6-.017-.006a1.815,1.815,0,0,1,1.069-3.469Z" transform="translate(-760.409 -483.437)"/><path class="at" d="M966.582,498.337l1.962.675a1.82,1.82,0,0,1-1.184,3.443h0l-.016-.006-1.928-.665-.017-.006a1.819,1.819,0,0,1,1.185-3.44Z" transform="translate(-775.007 -488.117)"/><path class="at" d="M987.535,505.821l1.937.74a1.816,1.816,0,0,1-1.3,3.392l-.011,0-1.908-.722-.016-.006a1.818,1.818,0,0,1,1.288-3.4Z" transform="translate(-789.449 -493.275)"/><path class="at" d="M1008.266,513.985l1.911.8a1.806,1.806,0,1,1-1.391,3.333l-.01,0-1.883-.78-.015-.006a1.809,1.809,0,0,1,1.384-3.343Z" transform="translate(-803.749 -498.903)"/><path class="at" d="M1028.722,522.763l1.888.854a1.8,1.8,0,0,1-1.481,3.274l-.01,0-1.861-.836-.014-.006a1.8,1.8,0,1,1,1.475-3.283Z" transform="translate(-817.862 -504.955)"/><path class="at" d="M1048.929,532.142l1.864.909a1.787,1.787,0,0,1-1.567,3.213l-.009,0-1.839-.89-.014-.007a1.79,1.79,0,1,1,1.56-3.222Z" transform="translate(-831.805 -511.423)"/><path class="at" d="M1068.865,542.089l1.838.961a1.778,1.778,0,1,1-1.646,3.151l-.009,0-1.815-.942-.013-.007a1.781,1.781,0,1,1,1.641-3.161Z" transform="translate(-845.562 -518.283)"/><path class="at" d="M1088.521,552.582l1.812,1.009a1.769,1.769,0,1,1-1.722,3.09l-.008,0-1.79-.991-.012-.007a1.771,1.771,0,1,1,1.716-3.1Z" transform="translate(-859.127 -525.52)"/><path class="at" d="M1107.892,563.6l1.785,1.057a1.759,1.759,0,0,1-1.792,3.027l-.008,0-1.764-1.038-.012-.007a1.762,1.762,0,1,1,1.787-3.037Z" transform="translate(-872.497 -533.117)"/><path class="at" d="M1126.971,575.107l1.756,1.1a1.75,1.75,0,0,1-1.859,2.965l-.007,0-1.737-1.083-.011-.007a1.753,1.753,0,0,1,1.854-2.975Z" transform="translate(-885.666 -541.057)"/><path class="at" d="M1145.749,587.1l1.727,1.144a1.74,1.74,0,1,1-1.922,2.9l-.007,0-1.708-1.125-.011-.007a1.743,1.743,0,0,1,1.918-2.912Z" transform="translate(-898.629 -549.329)"/><path class="at" d="M1164.222,599.546l1.7,1.184a1.731,1.731,0,1,1-1.981,2.839l-.006,0-1.68-1.166-.01-.007a1.734,1.734,0,1,1,1.977-2.849Z" transform="translate(-911.382 -557.917)"/><path class="at" d="M1182.388,612.409l1.669,1.217a1.722,1.722,0,0,1-2.029,2.782l0,0-1.656-1.2-.008-.006a1.724,1.724,0,1,1,2.025-2.792Z" transform="translate(-923.926 -566.793)"/><path class="at" d="M1200.286,625.618l1.645,1.245a1.712,1.712,0,1,1-2.066,2.731l0,0-1.636-1.231-.006,0a1.715,1.715,0,1,1,2.062-2.741Z" transform="translate(-936.29 -575.911)"/><path class="at" d="M1217.967,639.124l1.626,1.268a1.7,1.7,0,0,1-2.094,2.685h0l-1.619-1.255-.005,0a1.706,1.706,0,0,1,2.09-2.7Z" transform="translate(-948.506 -585.237)"/><path class="at" d="M1235.456,652.857l1.611,1.286a1.693,1.693,0,0,1-2.112,2.647h0l-1.607-1.275,0,0a1.7,1.7,0,0,1,2.108-2.657Z" transform="translate(-960.593 -594.721)"/><path class="at" d="M1252.8,666.765l1.6,1.3a1.684,1.684,0,0,1-2.121,2.617l-1.6-1.289a1.687,1.687,0,0,1,2.113-2.63Z" transform="translate(-972.587 -604.329)"/><path class="at" d="M1270.057,680.793l1.593,1.3a1.675,1.675,0,0,1-2.12,2.592l-1.594-1.3a1.677,1.677,0,0,1,2.116-2.6Z" transform="translate(-984.517 -614.021)"/><path class="at" d="M1287.257,694.884l1.589,1.306a1.665,1.665,0,0,1-2.111,2.575l-1.593-1.3a1.668,1.668,0,1,1,2.111-2.583Z" transform="translate(-996.413 -623.76)"/><path class="at" d="M1304.444,708.981l1.59,1.3a1.656,1.656,0,0,1-2.094,2.565l-1.6-1.3a1.659,1.659,0,1,1,2.1-2.572Z" transform="translate(-1008.302 -633.505)"/><path class="at" d="M1321.665,723.029l1.6,1.295a1.646,1.646,0,0,1-2.069,2.562l-1.6-1.294a1.649,1.649,0,1,1,2.071-2.567Z" transform="translate(-1020.218 -643.218)"/><path class="at" d="M1338.964,736.972l1.6,1.281,0,0a1.637,1.637,0,0,1-2.04,2.561l-1.615-1.282a1.64,1.64,0,1,1,2.039-2.568l0,0Z" transform="translate(-1032.19 -652.861)"/><path class="at" d="M1356.381,750.753l1.617,1.262.005,0a1.628,1.628,0,0,1-2,2.569l-1.63-1.265a1.63,1.63,0,1,1,2-2.576l0,0Z" transform="translate(-1044.247 -662.394)"/><path class="at" d="M1373.959,764.316l1.634,1.237.006.005a1.618,1.618,0,0,1-1.951,2.583L1372,766.9a1.621,1.621,0,1,1,1.95-2.59l0,0Z" transform="translate(-1056.418 -671.778)"/><path class="at" d="M1391.747,777.6l1.654,1.206.008.005a1.609,1.609,0,0,1-1.892,2.6l-1.673-1.213a1.611,1.611,0,1,1,1.892-2.609l0,0Z" transform="translate(-1068.737 -680.97)"/><path class="at" d="M1409.78,790.533l1.678,1.171.009.006a1.6,1.6,0,0,1-1.827,2.626l-1.7-1.178a1.6,1.6,0,0,1,1.826-2.633l0,0Z" transform="translate(-1081.228 -689.924)"/><path class="at" d="M1428.087,803.068l1.7,1.13.01.007a1.59,1.59,0,0,1-1.753,2.653l-1.728-1.138a1.593,1.593,0,0,1,1.753-2.66l0,0Z" transform="translate(-1093.912 -698.602)"/><path class="at" d="M1446.705,815.165l1.731,1.086.011.007a1.568,1.568,0,0,1-1.659,2.662l-1.761-1.089a1.575,1.575,0,0,1,1.658-2.679l.008.005Z" transform="translate(-1106.82 -706.979)"/><path class="at" d="M1465.66,826.752l1.761,1.034.013.007a1.547,1.547,0,0,1-1.557,2.674l-1.793-1.037a1.553,1.553,0,1,1,1.554-2.689l.009,0Z" transform="translate(-1119.97 -715.006)"/><path class="at" d="M1484.959,837.745l1.794.974.014.008a1.525,1.525,0,0,1-1.447,2.685l-1.828-.977a1.532,1.532,0,1,1,1.445-2.7l.008,0Z" transform="translate(-1133.36 -722.623)"/><path class="at" d="M1504.619,848.07l1.827.907.016.008a1.5,1.5,0,0,1-1.329,2.7l-1.864-.911a1.51,1.51,0,0,1,1.326-2.714l.009,0Z" transform="translate(-1147.002 -729.778)"/><path class="at" d="M1524.647,857.648l1.86.833.017.008a1.482,1.482,0,0,1-1.2,2.709l-1.9-.836a1.489,1.489,0,0,1,1.2-2.725l.008,0Z" transform="translate(-1160.901 -736.417)"/><path class="at" d="M1545.038,866.4l1.892.751.019.007a1.46,1.46,0,0,1-1.069,2.718l-1.933-.753a1.467,1.467,0,1,1,1.065-2.734l.008,0Z" transform="translate(-1175.054 -742.48)"/><path class="at" d="M1565.793,874.228l1.922.661.02.007a1.439,1.439,0,0,1-.927,2.724l-1.966-.662a1.445,1.445,0,0,1,.923-2.74l.009,0Z" transform="translate(-1189.462 -747.912)"/><path class="at" d="M1586.889,881.063l1.953.564.021.006a1.417,1.417,0,0,1-.779,2.725l-2-.564a1.424,1.424,0,0,1,.774-2.74l.009,0Z" transform="translate(-1204.107 -752.651)"/><path class="at" d="M1608.3,886.818l1.979.459.025.006a1.4,1.4,0,0,1-.622,2.721l-2.031-.457a1.4,1.4,0,0,1,.616-2.736l.009,0Z" transform="translate(-1218.971 -756.642)"/><path class="at" d="M1630,891.36l2,.339.024,0a1.374,1.374,0,0,1-.45,2.711l-2.055-.335a1.38,1.38,0,1,1,.443-2.725h.009Z" transform="translate(-1234.042 -759.794)"/><path class="at" d="M1651.929,894.592l2.02.217.025,0a1.352,1.352,0,0,1-.281,2.69l-2.071-.21a1.359,1.359,0,1,1,.274-2.7h.009Z" transform="translate(-1249.272 -762.037)"/><path class="at" d="M1674.013,896.487l2.03.092h.025a1.331,1.331,0,0,1-.113,2.659l-2.08-.082a1.337,1.337,0,0,1,.1-2.673h.034Z" transform="translate(-1264.608 -763.353)"/><path class="at" d="M1696.167,896.923l2.031-.036h.026a1.309,1.309,0,0,1,.056,2.618l-2.082.05a1.316,1.316,0,0,1-.064-2.631h.034Z" transform="translate(-1279.992 -763.63)"/><path class="at" d="M1718.3,895.712l2.023-.171.026,0a1.288,1.288,0,0,1,.224,2.566l-2.074.188a1.294,1.294,0,1,1-.234-2.578h.008Z" transform="translate(-1295.364 -762.695)"/><path class="at" d="M1740.323,893.007l2.006-.31.027,0a1.266,1.266,0,0,1,.395,2.5l-2.057.331a1.273,1.273,0,1,1-.4-2.513h.008Z" transform="translate(-1310.656 -760.721)"/><path class="at" d="M1762.113,888.747l1.977-.456.027-.006a1.244,1.244,0,0,1,.566,2.424l-2.029.481a1.251,1.251,0,1,1-.577-2.435l.008,0Z" transform="translate(-1325.79 -757.664)"/><path class="at" d="M1783.543,882.868l1.935-.606.028-.009a1.223,1.223,0,0,1,.738,2.331l-1.987.636a1.229,1.229,0,1,1-.75-2.341l.007,0Z" transform="translate(-1340.675 -753.478)"/><path class="at" d="M1804.464,875.316l1.878-.761.029-.011a1.2,1.2,0,0,1,.909,2.222l-1.929.8a1.208,1.208,0,1,1-.923-2.232l.008,0Z" transform="translate(-1355.208 -748.128)"/><path class="at" d="M1824.733,866.091l1.807-.916.027-.014a1.165,1.165,0,0,1,1.064,2.072l-1.852.964a1.175,1.175,0,1,1-1.085-2.085l.011-.006Z" transform="translate(-1369.293 -741.617)"/><path class="at" d="M1844.155,855.137l1.717-1.075.027-.017a1.129,1.129,0,0,1,1.208,1.907l-1.758,1.127a1.14,1.14,0,0,1-1.23-1.919l.01-.006Z" transform="translate(-1382.792 -733.903)"/><path class="at" d="M1862.52,842.459l1.6-1.232.029-.022a1.093,1.093,0,0,1,1.341,1.726l-1.646,1.293a1.1,1.1,0,0,1-1.364-1.736l.009-.007Z" transform="translate(-1395.554 -724.991)"/><path class="at" d="M1879.533,828l1.464-1.4.024-.023a1.057,1.057,0,0,1,1.468,1.522l-1.5,1.459a1.068,1.068,0,1,1-1.491-1.53l.008-.008Z" transform="translate(-1407.385 -714.837)"/><path class="at" d="M1894.971,811.883l1.314-1.542.02-.024a1.021,1.021,0,0,1,1.561,1.317l-1.338,1.6a1.032,1.032,0,0,1-1.585-1.323l.007-.008Z" transform="translate(-1418.115 -703.553)"/><path class="at" d="M1908.725,794.333l1.155-1.666.017-.024a.986.986,0,0,1,1.626,1.115l-1.171,1.727a1,1,0,1,1-1.65-1.118l.006-.009Z" transform="translate(-1427.671 -691.292)"/><path class="at" d="M1920.7,775.549l.986-1.773.014-.025a.95.95,0,0,1,1.665.915l-.994,1.833a.961.961,0,1,1-1.689-.917l0-.009Z" transform="translate(-1435.986 -678.192)"/><path class="at" d="M1930.773,755.718l.805-1.862.011-.025a.914.914,0,0,1,1.682.717l-.807,1.922a.925.925,0,1,1-1.706-.716l0-.009Z" transform="translate(-1442.983 -664.38)"/><path class="at" d="M1938.825,735.021l.611-1.935.008-.026a.878.878,0,0,1,1.678.52l-.607,1.994a.889.889,0,0,1-1.7-.518l0-.009Z" transform="translate(-1448.574 -649.982)"/><path class="at" d="M1944.7,713.654l.4-1.989.006-.028a.843.843,0,0,1,1.654.325l-.391,2.048a.853.853,0,1,1-1.677-.32v-.009Z" transform="translate(-1452.656 -635.135)"/><path class="at" d="M1948.236,691.833l.176-2.022,0-.028a.807.807,0,0,1,1.608.131l-.159,2.081a.818.818,0,1,1-1.631-.124v-.008Z" transform="translate(-1455.108 -619.987)"/><path class="at" d="M1949.082,669.823l-.068-2.027v-.029a.771.771,0,0,1,1.541-.06l.092,2.084a.782.782,0,0,1-1.562.069v-.037Z" transform="translate(-1455.649 -604.731)"/><path class="at" d="M1946.785,647.945l-.325-2,0-.029a.735.735,0,0,1,1.45-.243l.355,2.055a.746.746,0,0,1-1.47.255v-.008Z" transform="translate(-1453.875 -589.59)"/><path class="at" d="M1941.631,626.574l-.59-1.94-.008-.028a.7.7,0,0,1,1.336-.414l.628,1.989a.71.71,0,1,1-1.355.427l0-.007Z" transform="translate(-1450.113 -574.828)"/><g transform="translate(454.924 5.206)"><path class="m" d="M1919.367,560.5l-4.31,8.3-3.771-6.489Z" transform="translate(-1884.5 -536.351)"/><path class="at" d="M1824.566,482.325l12.216,31.308a2.367,2.367,0,0,0,3.149,1.311l30.972-13.45a.949.949,0,0,0-.044-1.759Z" transform="translate(-1824.566 -482.325)"/><path class="m" d="M1859.43,506.47l-34.864-24.146,29.872,26.331-1.1,2.354Z" transform="translate(-1824.566 -482.325)"/><path class="m" d="M1911.663,568.846l3.654,4.845-.685-6.118Z" transform="translate(-1884.761 -541.241)"/></g></g><g transform="translate(417.542 131.033)"><g transform="translate(79.951 76.084)"><path class="au" d="M2134.367,1441.574s1.656,2.61,2.072,9.917a1.19,1.19,0,0,1-1.183,1.261h-12.949a.764.764,0,0,1-.726-1c.759-2.246,3.053-7.721,8.172-10.85Z" transform="translate(-2007.998 -1235.491)"/><path class="av" d="M2151.366,1425.536l-.732,6.141a1.155,1.155,0,0,1-1.008,1.015,10.241,10.241,0,0,1-2.738-.026,1.9,1.9,0,0,1-1.564-1.881v-5.93Z" transform="translate(-2024.434 -1224.404)"/><path class="aw" d="M2012.461,1440.9a18.085,18.085,0,0,1,2.426,9.14,2.288,2.288,0,0,1-2.3,2.238h-20.111a.963.963,0,0,1-.553-1.751c3.806-2.672,11.286-7.665,16.7-9.627Z" transform="translate(-1918.13 -1235.491)"/><path class="ax" d="M2052.6,1412.834l-1.563,7.585a1.564,1.564,0,0,1-1.85,1.23,5.652,5.652,0,0,1-1.768-.74,1.8,1.8,0,0,1-.8-1.832l1.616-9.189Z" transform="translate(-1956.198 -1214.06)"/><path class="ay" d="M2078.75,1078.028s5.432,4.789,6.454,10.55-2.9,99.4-2.9,99.4-5.432.9-8.231-.793c0,0-3.321-60.774-5.845-74.817,0,0-13.238,62.954-16.906,74.328,0,0-5.233.637-6.92-.359,0,0,3.468-81.605,7.825-96.114Z" transform="translate(-1954.687 -984.706)"/><path class="az" d="M2120.9,1153.321a.5.5,0,0,1-.13-.017.514.514,0,0,1-.368-.627l2.308-8.851a.511.511,0,0,1,.22-.3l4.985-3.2a.514.514,0,1,1,.555.865l-4.815,3.089-2.257,8.657A.515.515,0,0,1,2120.9,1153.321Z" transform="translate(-2007.2 -1027.704)"/><path class="ba" d="M1935.714,897.719c22.866-1.9,28.842,2.834,28.842,2.834L1953.568,917.9s-22.468-.444-38.567-12.852a39.293,39.293,0,0,0,6.448-9.623A30.282,30.282,0,0,0,1935.714,897.719Z" transform="translate(-1865.254 -858.506)"/><path class="bb" d="M1864.36,792.685a.7.7,0,0,1,1.335-.268l2.918,6.226a6.485,6.485,0,0,1,.518,3.859l-1.023,3.624a6.254,6.254,0,0,0,1.276,4.979c2.681,3.352,8.39,9.473,16.519,12.851a39.307,39.307,0,0,1-6.448,9.623,39.437,39.437,0,0,1-13.726-19.059,3.06,3.06,0,0,1-2.159-3.042Z" transform="translate(-1829.707 -787.035)"/><path class="bc" d="M1909.955,903.339c8.049-8.674,23.382-12.593,32.26-14.2a8.142,8.142,0,0,1,9.1,5.163c4,10.739,14.86,38.678,16.966,43.48,1.728,3.939,3.532,7.787,4.678,10.192a2.887,2.887,0,0,1-1.347,3.848c-7.469,3.6-20.908,7.673-26.357,9.262a1.869,1.869,0,0,1-2.392-1.8,5.838,5.838,0,0,0-.833-3.005L1921.4,921.891c-12.861,14.26-24.124,15.565-32.777,12.443a65.085,65.085,0,0,0,2.864-13.514C1904.266,918.631,1909.955,903.339,1909.955,903.339Z" transform="translate(-1847.021 -854.068)"/><path class="bd" d="M1829.491,977.38l2.307-3.075c7.468,5.129,13.71,6.344,18.821,5.469a65.071,65.071,0,0,1-2.864,13.514C1836.356,989.176,1829.491,977.38,1829.491,977.38Z" transform="translate(-1806.156 -913.021)"/><path class="be" d="M1778.906,969.694l-13,.507-11.965-6.683c1.718-1.077,11.43,1.124,11.43,1.124s10.153-1.536,12.9-1.539c2.282,0,1.956,3.279,1.78,4.391-.036.227-.066.364-.066.364Z" transform="translate(-1753.945 -905.279)"/><path class="bf" d="M1998.476,837.859l6.857,16.732s-7.878,5.453-14.217,4.934l-3.422-15.045Z" transform="translate(-1915.493 -818.721)"/><g transform="translate(64.817)"><path class="bg" d="M1974,798.731c-.157.222-4.961,17.576-4.961,17.576l9.967,2.532,7-15.771S1976.633,795.006,1974,798.731Z" transform="translate(-1967.421 -790.999)"/><path class="bh" d="M1978.623,790.364l-3.033,8.591a1.258,1.258,0,0,1-.158.308c-.411.585-1.975,2.493-3.83.774-1.683-1.56-3.242-2.958-4.681-3.212a1.271,1.271,0,0,0-1.448.913,55,55,0,0,0-1.676,8.372,1.269,1.269,0,0,0,1.032,1.368,41.011,41.011,0,0,0,9.52.792,1.273,1.273,0,0,0,1.072-.739c.95-2.075,3.859-8.37,4.941-10,1.016-1.529,3.505-1.486,4.55-1.393a1.25,1.25,0,0,0,.938-.307c.913-.8,2.652-2.845.206-5.292a1.275,1.275,0,0,1,.029-1.834,3.3,3.3,0,0,0,.424-4.911,4.662,4.662,0,0,0-5.565-1.332,1.273,1.273,0,0,1-1.532-.566,1.006,1.006,0,0,0-1.038-.486,1.254,1.254,0,0,1-1.337-1.286,3.8,3.8,0,0,0-2.935-3.965c-4.354-1.355-7.069,2.851-7.338,5.99s4.535,4.339,7.36,4.128c2.147-.161,3.742,1.968,4.383,3A1.26,1.26,0,0,1,1978.623,790.364Z" transform="translate(-1963.791 -775.899)"/><path class="bi" d="M2013.766,843.179s.7-5.449,2.97-5.716,4.473,1.6,2.219,4.654C2016.152,845.922,2013.766,843.179,2013.766,843.179Z" transform="translate(-1998.329 -818.43)"/></g></g><g transform="translate(-16.401 4)"><circle class="bj" cx="57.168" cy="57.168" r="57.168" transform="translate(0 80.848) rotate(-45)"/><circle class="bk" cx="55.267" cy="55.267" r="55.267" transform="translate(2.688 80.848) rotate(-45)"/><path class="bl" d="M1590.6,767.494h-.031a.584.584,0,0,1-.552-.613,51.776,51.776,0,0,1,.75-6.482.584.584,0,1,1,1.149.208,50.844,50.844,0,0,0-.733,6.335A.584.584,0,0,1,1590.6,767.494Z" transform="translate(-1560.701 -688.77)"/><path class="bm" d="M1608,653.487a.577.577,0,0,1-.263-.063.583.583,0,0,1-.258-.784,51.385,51.385,0,0,1,46.094-28.381,52.013,52.013,0,0,1,9.309.838.584.584,0,1,1-.209,1.148,50.909,50.909,0,0,0-9.1-.819,50.225,50.225,0,0,0-45.052,27.739A.583.583,0,0,1,1608,653.487Z" transform="translate(-1572.726 -595.014)"/><circle class="bn" cx="46.777" cy="46.777" r="46.777" transform="translate(15.9 82.052) rotate(-45)"/><g transform="translate(47.441 56.178)"><path class="bk" d="M1667.3,762.627a7,7,0,0,1-.756-.042,6.858,6.858,0,0,1-4.847-2.862l-11.746-16.648a6.857,6.857,0,0,1,11.2-7.906l7.283,10.323,35.65-32.266a6.856,6.856,0,1,1,9.2,10.167l-41.39,37.461A6.855,6.855,0,0,1,1667.3,762.627Z" transform="translate(-1648.696 -711.453)"/></g></g></g></g></g></g></svg>