<svg xmlns="http://www.w3.org/2000/svg" xmlns:xlink="http://www.w3.org/1999/xlink" width="132.038" height="162.876" viewBox="0 0 132.038 162.876"><defs><style>.a{fill:#d4e1f4;}.b{fill:url(#a);}.c{fill:url(#b);}.d{fill:#083863;}.e{fill:#ffe14d;}</style><linearGradient id="a" x1="-0.107" y1="0.661" x2="1.341" y2="-0.131" gradientUnits="objectBoundingBox"><stop offset="0" stop-color="#7197fc"/><stop offset="1" stop-color="#2824e3"/></linearGradient><linearGradient id="b" x1="0.966" y1="0.018" x2="0.03" y2="0.981" gradientUnits="objectBoundingBox"><stop offset="0" stop-color="#759cfd"/><stop offset="1" stop-color="#2722e3"/></linearGradient></defs><g transform="translate(-1069.723 605.639)"><g transform="translate(1061.189 -605.639)"><g transform="translate(24.562 0)"><path class="a" d="M167.116,71.447V179.976a11.365,11.365,0,0,1-11.364,11.364H62.564A11.365,11.365,0,0,1,51.2,179.976V71.447A11.364,11.364,0,0,1,62.564,60.083H81.126V73.341H137V60.083h18.751A11.364,11.364,0,0,1,167.116,71.447Z" transform="translate(-51.105 -38.301)"/><path class="b" d="M189.621,21.782V35.04H133.747V11.365h13.827A14.4,14.4,0,0,1,161.589,0a14.205,14.205,0,0,1,14.016,11.364h14.016V21.782Z" transform="translate(-103.726 0)"/><rect class="c" width="116.01" height="131.236" rx="8" transform="translate(0 21.86)"/><g transform="translate(14.526 51.45)"><path class="d" d="M102.524,243.556a3.409,3.409,0,0,1-2.652-1.137l-7.765-7.955a3.977,3.977,0,0,1,0-5.493,3.788,3.788,0,0,1,5.3.189l5.114,5.3,12.122-11.554a3.788,3.788,0,0,1,5.3.189,3.6,3.6,0,0,1,.219,5.085c-.07.076-.143.149-.219.219l-14.774,14.016A3.789,3.789,0,0,1,102.524,243.556Z" transform="translate(-91.007 -221.919)"/><path class="d" d="M237.523,255.218H193.96a3.788,3.788,0,1,1,0-7.576h43.563a3.788,3.788,0,1,1,0,7.576Z" transform="translate(-154.221 -209.314)"/><path class="d" d="M237.523,171.626H193.96a3.788,3.788,0,1,1,0-7.576h43.563a3.788,3.788,0,1,1,0,7.576Z" transform="translate(-154.221 -156.027)"/><path class="d" d="M237.523,338.81H193.96a3.788,3.788,0,1,1,0-7.576h43.563a3.788,3.788,0,1,1,0,7.576Z" transform="translate(-154.221 -262.601)"/></g></g><path class="e" d="M37.017,74.033a37.289,37.289,0,0,1-7.46-.752,36.809,36.809,0,0,1-13.236-5.57A37.125,37.125,0,0,1,2.909,51.425,36.8,36.8,0,0,1,.752,44.477a37.379,37.379,0,0,1,0-14.92A36.811,36.811,0,0,1,6.322,16.32,37.122,37.122,0,0,1,22.608,2.909,36.826,36.826,0,0,1,29.556.752a37.374,37.374,0,0,1,14.92,0,36.817,36.817,0,0,1,13.236,5.57A37.128,37.128,0,0,1,71.124,22.608a36.825,36.825,0,0,1,2.157,6.948,37.37,37.37,0,0,1,0,14.92,36.812,36.812,0,0,1-5.57,13.236A37.126,37.126,0,0,1,51.425,71.124a36.829,36.829,0,0,1-6.948,2.157A37.3,37.3,0,0,1,37.017,74.033Zm-8.676-32.7A2.171,2.171,0,0,0,26.172,43.5c0,4.106,3.648,7.681,8.675,8.5v2.366a2.169,2.169,0,0,0,4.338,0V52c5.027-.819,8.675-4.393,8.675-8.5s-3.648-7.681-8.675-8.5V26.427a8.1,8.1,0,0,1,1.73.633A6.123,6.123,0,0,1,42.29,28a4.116,4.116,0,0,1,.907,1.167,2.926,2.926,0,0,1,.327,1.327,2.169,2.169,0,1,0,4.338,0c0-4.106-3.648-7.681-8.675-8.5V19.644a2.169,2.169,0,0,0-4.338,0v2.344c-5.027.819-8.675,4.394-8.675,8.5s3.648,7.681,8.675,8.5v8.576a8.106,8.106,0,0,1-1.73-.634A6.136,6.136,0,0,1,31.743,46,3.4,3.4,0,0,1,30.509,43.5,2.171,2.171,0,0,0,28.34,41.333Zm10.845,6.231V39.44a8.1,8.1,0,0,1,1.73.633,6.123,6.123,0,0,1,1.374.935,3.136,3.136,0,0,1,0,4.987,6.127,6.127,0,0,1-1.374.935,8.1,8.1,0,0,1-1.73.633ZM34.847,34.551h0a8.112,8.112,0,0,1-1.73-.633,6.13,6.13,0,0,1-1.374-.935,4.112,4.112,0,0,1-.906-1.166,2.854,2.854,0,0,1,0-2.654A4.117,4.117,0,0,1,31.743,28a6.127,6.127,0,0,1,1.374-.935,8.106,8.106,0,0,1,1.73-.633Z" transform="translate(8.534 88.843)"/></g></g></svg>