<svg xmlns="http://www.w3.org/2000/svg" xmlns:xlink="http://www.w3.org/1999/xlink" width="153.168" height="137.784" viewBox="0 0 153.168 137.784"><defs><style>.a{fill:url(#a);}.b{fill:url(#b);}.c{fill:url(#g);}.d{fill:#fe7058;}.e,.g,.h{fill:#fff;}.f{fill:url(#k);}.g{opacity:0.3;}.h{opacity:0.29;}.i{fill:#bdbec1;}</style><linearGradient id="a" x1="1" y1="0.032" x2="0.027" y2="0.986" gradientUnits="objectBoundingBox"><stop offset="0" stop-color="#759dfe"/><stop offset="1" stop-color="#2824e3"/></linearGradient><linearGradient id="b" x1="-0.063" y1="1.059" x2="1" y2="0.026" gradientUnits="objectBoundingBox"><stop offset="0" stop-color="#749bfe"/><stop offset="1" stop-color="#393fe9"/></linearGradient><linearGradient id="g" x1="1.627" y1="-5.53" x2="-0.433" y2="1.965" gradientUnits="objectBoundingBox"><stop offset="0" stop-color="#3539e8"/><stop offset="1" stop-color="#1d2b35"/></linearGradient><linearGradient id="k" x1="1.627" y1="-5.53" x2="-0.433" y2="1.965" gradientUnits="objectBoundingBox"><stop offset="0" stop-color="#3539e8"/><stop offset="1" stop-color="#749bfe"/></linearGradient></defs><g transform="translate(-626 -3334.216)"><g transform="translate(635.985 3334.216)"><path class="a" d="M26.937,136.784a2.16,2.16,0,1,1,0-4.319H43.215a12.159,12.159,0,0,0,11.017-8.308l.919-3.211,2.469-8.639H8.643A8.666,8.666,0,0,1,0,103.667V86.39H0V8.639A8.666,8.666,0,0,1,8.643,0h125.9a8.666,8.666,0,0,1,8.643,8.639v77.75h0v17.277a8.666,8.666,0,0,1-8.643,8.639H85.564l3.388,11.85a12.159,12.159,0,0,0,11.017,8.308h16.278a2.16,2.16,0,1,1,0,4.319Z" transform="translate(0 0)"/><rect class="b" width="131.984" height="99.463" rx="5" transform="translate(5.599 5.599)"/><rect class="b" width="53.594" height="7.199" rx="3.6" transform="translate(75.991 20.797)"/><rect class="b" width="53.594" height="27.997" rx="5" transform="translate(14.398 20.797)"/><rect class="b" width="53.594" height="7.199" rx="3.6" transform="translate(75.991 31.196)"/><rect class="b" width="30.594" height="7.199" rx="3.6" transform="translate(75.991 41.595)"/></g><g transform="translate(626 3392.404)"><g transform="translate(0 19.07)"><path class="c" d="M327.495,265.224l7.978-.048a2.754,2.754,0,0,1,2.77,2.737l.094,15.841a2.754,2.754,0,0,1-2.737,2.77l-7.978.048a2.754,2.754,0,0,1-2.77-2.737l-.094-15.841A2.754,2.754,0,0,1,327.495,265.224Z" transform="translate(-236.354 -226.53)"/><path class="c" d="M29.262,267l7.978-.048a2.754,2.754,0,0,1,2.77,2.737l.094,15.841a2.754,2.754,0,0,1-2.737,2.77l-7.978.048a2.754,2.754,0,0,1-2.77-2.737l-.094-15.841A2.754,2.754,0,0,1,29.262,267Z" transform="translate(-19.304 -227.822)"/><path class="c" d="M354.491,123.319a1.287,1.287,0,0,0-1.166,1.3,2.6,2.6,0,0,1-1.95,2.849l-1.985.012,1.019,2.974s12.778-.077,12.4-4.274c-.3-3.257-5.842-3.095-8.314-2.857Z" transform="translate(-254.281 -123.208)"/><path class="c" d="M8.323,123.319a1.287,1.287,0,0,1,1.166,1.3,2.6,2.6,0,0,0,1.95,2.849l1.985.012L12.4,130.451s-12.778-.077-12.4-4.274c.3-3.257,5.842-3.095,8.315-2.857Z" transform="translate(0 -123.208)"/></g><path class="d" d="M112.942,97.257a21.984,21.984,0,0,0-2.647-8.9l-5.386-9.878S95.345,56.921,91.36,55.206c-3.852-1.659-28.442-2.032-30.071-2.055H61.2c-1.629.043-26.212.71-30.044,2.414C27.191,57.328,17.88,78.994,17.88,78.994l-5.263,9.942a22.006,22.006,0,0,0-2.541,8.93,64.361,64.361,0,0,0,2.2,20.477,7.177,7.177,0,0,0,6.99,5.28l42.351-.245h.09l42.351-.252a7.178,7.178,0,0,0,6.925-5.363A64.3,64.3,0,0,0,112.942,97.257Z" transform="translate(-7.266 -53.151)"/><path class="e" d="M120.13,261.576l41.27-.246a1.337,1.337,0,0,1,1.345,1.329l.042,7.027a1.337,1.337,0,0,1-1.329,1.345l-41.27.246a1.337,1.337,0,0,1-1.345-1.329l-.042-7.027A1.337,1.337,0,0,1,120.13,261.576Z" transform="translate(-86.462 -204.66)"/><path class="f" d="M126.274,66.9a2.693,2.693,0,0,0-2.393-1.569l-28.22-.579h-.089l-28.212.916a2.693,2.693,0,0,0-2.373,1.6l-8.1,18.208,38.8-.232h.089l38.8-.232Z" transform="translate(-41.407 -61.596)"/><path class="g" d="M332.42,256.968a4.925,4.925,0,1,0,4.954,4.9v0A4.925,4.925,0,0,0,332.42,256.968Z" transform="translate(-238.366 -201.486)"/><path class="g" d="M41.882,258.7a4.925,4.925,0,1,0,4.955,4.9A4.925,4.925,0,0,0,41.882,258.7Z" transform="translate(-26.918 -202.749)"/><path class="e" d="M131.61,216.343h35.921v4.484H131.61Z" transform="translate(-95.784 -171.92)"/><path class="h" d="M308.086,185.907a1.912,1.912,0,0,0-2.115-1.685,1.883,1.883,0,0,0-.243.044L289.3,188.282a1.913,1.913,0,0,0-1.181.868l-3.254,5.386a1.909,1.909,0,0,0,1.634,2.9h16.05a1.923,1.923,0,0,0,1.058-.308C307.4,194.617,308.58,190.711,308.086,185.907Z" transform="translate(-207.121 -148.534)"/><path class="i" d="M333.073,196.035a3.6,3.6,0,1,0,3.744,3.449A3.6,3.6,0,0,0,333.073,196.035Z" transform="translate(-239.893 -157.138)"/><path class="i" d="M307.265,208.655a2.737,2.737,0,1,0,2.845,2.625v0A2.737,2.737,0,0,0,307.265,208.655Z" transform="translate(-221.711 -166.323)"/><path class="h" d="M27.516,185.907a1.912,1.912,0,0,1,2.115-1.685,1.882,1.882,0,0,1,.243.044L46.3,188.282a1.913,1.913,0,0,1,1.181.868l3.254,5.386a1.909,1.909,0,0,1-1.634,2.9H33.051a1.923,1.923,0,0,1-1.058-.308C28.206,194.617,27.022,190.711,27.516,185.907Z" transform="translate(-19.948 -148.534)"/><path class="i" d="M46.383,196.035a3.6,3.6,0,1,1-3.743,3.449A3.6,3.6,0,0,1,46.383,196.035Z" transform="translate(-31.031 -157.138)"/><path class="i" d="M76.8,208.655a2.737,2.737,0,1,1-2.845,2.625v0A2.737,2.737,0,0,1,76.8,208.655Z" transform="translate(-53.821 -166.323)"/></g></g></svg>