<svg xmlns="http://www.w3.org/2000/svg" xmlns:xlink="http://www.w3.org/1999/xlink" width="166.823" height="154.787" viewBox="0 0 166.823 154.787"><defs><style>.a{fill:url(#a);}.b{fill:url(#d);}.c{fill:url(#e);}.d{fill:url(#f);}</style><linearGradient id="a" x1="0.718" y1="-0.801" x2="-0.075" y2="1.201" gradientUnits="objectBoundingBox"><stop offset="0" stop-color="#7197fc"/><stop offset="1" stop-color="#2824e3"/></linearGradient><linearGradient id="d" x1="0.12" y1="0.925" x2="0.846" y2="0.163" gradientUnits="objectBoundingBox"><stop offset="0" stop-color="#7298fd"/><stop offset="1" stop-color="#2824e3"/></linearGradient><linearGradient id="e" x1="0.5" x2="0.5" y2="1" gradientUnits="objectBoundingBox"><stop offset="0" stop-color="#fff"/><stop offset="1" stop-color="gray"/></linearGradient><linearGradient id="f" x1="-0.063" y1="1.059" x2="1" y2="0.026" gradientUnits="objectBoundingBox"><stop offset="0" stop-color="#749bfe"/><stop offset="1" stop-color="#393fe9"/></linearGradient></defs><g transform="translate(-948 -3778.213)"><g transform="translate(964.833 3778.213)"><path class="a" d="M5675.459-3110.876a4.292,4.292,0,0,1-4.292-4.292v-34.753a4.292,4.292,0,0,1,4.292-4.292h21.217a4.292,4.292,0,0,1,4.292,4.292v34.753a4.292,4.292,0,0,1-4.292,4.292Z" transform="translate(-5606.989 3154.213)"/><path class="a" d="M5713.268-3125.807h-37.809a4.291,4.291,0,0,1-4.291-4.291v-19.823a4.292,4.292,0,0,1,4.291-4.293h75.619a4.292,4.292,0,0,1,4.292,4.293v19.823a4.291,4.291,0,0,1-4.292,4.291Z" transform="translate(-5634.19 3188.966)"/><path class="a" d="M5726.106-3098.809h-50.648a4.292,4.292,0,0,1-4.292-4.292v-46.82a4.293,4.293,0,0,1,4.292-4.293h101.294c.074,0,.147,0,.221.006a4.294,4.294,0,0,1,4.072,4.288v46.82a4.292,4.292,0,0,1-4.293,4.292Z" transform="translate(-5647.028 3208.79)"/><g transform="translate(8.167 72.031)"><path class="b" d="M5733.911-3151.779h-49.485a4.291,4.291,0,0,1-3.773-2.246l-17.134-31.611a4.29,4.29,0,0,1-.328-3.312,4.288,4.288,0,0,1,2.137-2.55l66.619-34.27a4.283,4.283,0,0,1,1.964-.477,4.277,4.277,0,0,1,1.962.477l66.621,34.27a4.288,4.288,0,0,1,2.137,2.55,4.29,4.29,0,0,1-.328,3.312l-17.134,31.612a4.292,4.292,0,0,1-3.773,2.246Z" transform="translate(-5663 3226.244)"/></g></g><rect class="c" width="102" height="76" rx="6" transform="translate(948 3857)"/><rect class="d" width="50.054" height="7.679" rx="3.84" transform="translate(1015.414 3870.105) rotate(90)"/><rect class="d" width="50.054" height="7.679" rx="3.84" transform="translate(1039.948 3870.546) rotate(90)"/><rect class="d" width="50.054" height="7.679" rx="3.84" transform="translate(990.88 3870.546) rotate(90)"/><rect class="d" width="50.054" height="7.679" rx="3.84" transform="translate(966.346 3870.105) rotate(90)"/></g></svg>