<svg xmlns="http://www.w3.org/2000/svg" xmlns:xlink="http://www.w3.org/1999/xlink" width="196.531" height="131.278" viewBox="0 0 196.531 131.278"><defs><style>.a{fill:url(#a);}.b{fill:url(#b);}.c{fill:#fe7058;}.d,.f,.g{fill:#fff;}.e{fill:url(#f);}.f{opacity:0.3;}.g{opacity:0.29;}.h{fill:#bdbec1;}</style><linearGradient id="a" x1="0.906" x2="0.035" y2="1" gradientUnits="objectBoundingBox"><stop offset="0" stop-color="#7094fc"/><stop offset="1" stop-color="#2520e2"/></linearGradient><linearGradient id="b" x1="1.627" y1="-5.53" x2="-0.433" y2="1.965" gradientUnits="objectBoundingBox"><stop offset="0" stop-color="#3539e8"/><stop offset="1" stop-color="#1d2b35"/></linearGradient><linearGradient id="f" x1="1.627" y1="-5.53" x2="-0.433" y2="1.965" gradientUnits="objectBoundingBox"><stop offset="0" stop-color="#3539e8"/><stop offset="1" stop-color="#749bfe"/></linearGradient></defs><g transform="translate(-1284 -3338.31)"><rect class="a" width="181.555" height="131.278" rx="65.639" transform="translate(1291.448 3338.31)"/><g transform="translate(1341.012 3357.406)"><g transform="translate(0 14.487)"><path class="b" d="M326.837,265.212l6.06-.036a2.092,2.092,0,0,1,2.1,2.079l.072,12.034a2.092,2.092,0,0,1-2.079,2.1l-6.06.036a2.092,2.092,0,0,1-2.1-2.079l-.072-12.034A2.092,2.092,0,0,1,326.837,265.212Z" transform="translate(-257.6 -235.818)"/><path class="b" d="M28.6,266.987l6.06-.036a2.092,2.092,0,0,1,2.1,2.079l.072,12.034a2.092,2.092,0,0,1-2.079,2.1l-6.06.036a2.092,2.092,0,0,1-2.1-2.079l-.072-12.034A2.092,2.092,0,0,1,28.6,266.987Z" transform="translate(-21.04 -237.226)"/><path class="b" d="M353.265,123.293a.978.978,0,0,0-.886.984,1.977,1.977,0,0,1-1.481,2.164l-1.508.009.774,2.26s9.707-.058,9.417-3.247c-.225-2.474-4.438-2.351-6.316-2.171Z" transform="translate(-277.139 -123.208)"/><path class="b" d="M6.323,123.293a.978.978,0,0,1,.886.984,1.977,1.977,0,0,0,1.481,2.164l1.508.009-.774,2.26s-9.707-.058-9.417-3.247c.225-2.474,4.438-2.351,6.316-2.171Z" transform="translate(0 -123.208)"/></g><path class="c" d="M88.2,86.657A16.7,16.7,0,0,0,86.186,79.9l-4.092-7.5S74.829,56.015,71.8,54.712c-2.927-1.26-21.606-1.543-22.844-1.561H48.89c-1.238.033-19.912.539-22.823,1.834-3.011,1.339-10.085,17.8-10.085,17.8l-4,7.553a16.717,16.717,0,0,0-1.93,6.784,48.893,48.893,0,0,0,1.672,15.556,5.452,5.452,0,0,0,5.31,4.011l32.173-.186h.068l32.173-.191a5.453,5.453,0,0,0,5.261-4.074A48.848,48.848,0,0,0,88.2,86.657Z" transform="translate(-7.919 -53.151)"/><path class="d" d="M119.81,261.517l31.352-.187a1.016,1.016,0,0,1,1.022,1.01l.032,5.338a1.016,1.016,0,0,1-1.01,1.022l-31.352.187a1.016,1.016,0,0,1-1.022-1.01l-.032-5.338A1.016,1.016,0,0,1,119.81,261.517Z" transform="translate(-94.234 -218.28)"/><path class="e" d="M109.6,66.387a2.046,2.046,0,0,0-1.818-1.192l-21.438-.44h-.067l-21.431.7a2.046,2.046,0,0,0-1.8,1.213L56.894,80.5l29.474-.176h.067l29.478-.176Z" transform="translate(-45.129 -62.355)"/><path class="f" d="M331.243,256.968a3.742,3.742,0,1,0,3.763,3.72v0A3.742,3.742,0,0,0,331.243,256.968Z" transform="translate(-259.794 -214.82)"/><path class="f" d="M40.706,258.7a3.742,3.742,0,1,0,3.764,3.719A3.741,3.741,0,0,0,40.706,258.7Z" transform="translate(-29.338 -216.197)"/><path class="d" d="M131.61,216.343H158.9v3.406H131.61Z" transform="translate(-104.394 -182.596)"/><path class="g" d="M302.44,185.5a1.452,1.452,0,0,0-1.607-1.28,1.432,1.432,0,0,0-.184.033L288.169,187.3a1.453,1.453,0,0,0-.9.66l-2.472,4.092a1.45,1.45,0,0,0,1.242,2.2h12.193a1.461,1.461,0,0,0,.8-.234C301.915,192.116,302.815,189.149,302.44,185.5Z" transform="translate(-225.74 -157.108)"/><path class="h" d="M332.243,196.034a2.734,2.734,0,1,0,2.844,2.62A2.734,2.734,0,0,0,332.243,196.034Z" transform="translate(-261.458 -166.485)"/><path class="h" d="M306.634,208.654a2.08,2.08,0,1,0,2.161,1.994v0A2.079,2.079,0,0,0,306.634,208.654Z" transform="translate(-241.641 -176.496)"/><path class="g" d="M27.49,185.5a1.452,1.452,0,0,1,1.607-1.28,1.43,1.43,0,0,1,.184.033L41.76,187.3a1.453,1.453,0,0,1,.9.66l2.472,4.092a1.45,1.45,0,0,1-1.242,2.2H31.7a1.461,1.461,0,0,1-.8-.234C28.015,192.116,27.115,189.149,27.49,185.5Z" transform="translate(-21.742 -157.108)"/><path class="h" d="M45.483,196.034a2.734,2.734,0,1,1-2.844,2.62A2.734,2.734,0,0,1,45.483,196.034Z" transform="translate(-33.82 -166.485)"/><path class="h" d="M76.115,208.654a2.08,2.08,0,1,1-2.161,1.994v0A2.079,2.079,0,0,1,76.115,208.654Z" transform="translate(-58.659 -176.496)"/></g><g transform="translate(1284 3397.127)"><g transform="translate(0 0)"><g transform="translate(0 16.727)"><path class="b" d="M327.159,265.218l7-.042a2.415,2.415,0,0,1,2.43,2.4l.083,13.894a2.415,2.415,0,0,1-2.4,2.43l-7,.042a2.416,2.416,0,0,1-2.43-2.4l-.083-13.894A2.415,2.415,0,0,1,327.159,265.218Z" transform="translate(-247.217 -231.279)"/><path class="b" d="M28.926,266.993l7-.042a2.415,2.415,0,0,1,2.43,2.4l.083,13.895a2.415,2.415,0,0,1-2.4,2.43l-7,.042a2.415,2.415,0,0,1-2.43-2.4l-.083-13.894A2.416,2.416,0,0,1,28.926,266.993Z" transform="translate(-20.192 -232.63)"/><path class="b" d="M353.864,123.306a1.129,1.129,0,0,0-1.023,1.136,2.283,2.283,0,0,1-1.71,2.5l-1.741.011.894,2.609s11.208-.067,10.873-3.749c-.26-2.857-5.124-2.714-7.293-2.506Z" transform="translate(-265.968 -123.208)"/><path class="b" d="M7.3,123.306a1.129,1.129,0,0,1,1.023,1.136,2.283,2.283,0,0,0,1.71,2.5l1.741.011-.894,2.609S-.328,129.493.008,125.812c.26-2.857,5.124-2.714,7.293-2.506Z" transform="translate(0 -123.208)"/></g><path class="c" d="M100.29,91.837a19.282,19.282,0,0,0-2.322-7.807l-4.724-8.664S84.855,56.458,81.36,54.953c-3.379-1.455-24.947-1.782-26.376-1.8h-.079c-1.429.038-22.991.622-26.352,2.118-3.477,1.546-11.644,20.55-11.644,20.55l-4.616,8.721a19.3,19.3,0,0,0-2.229,7.833A56.452,56.452,0,0,0,12,110.333a6.3,6.3,0,0,0,6.131,4.631l37.147-.215h.079l37.147-.221a6.3,6.3,0,0,0,6.074-4.7A56.4,56.4,0,0,0,100.29,91.837Z" transform="translate(-7.6 -53.151)"/><path class="d" d="M119.967,261.546l36.2-.216a1.173,1.173,0,0,1,1.18,1.166l.037,6.164a1.173,1.173,0,0,1-1.166,1.18l-36.2.216a1.173,1.173,0,0,1-1.18-1.166l-.037-6.164A1.173,1.173,0,0,1,119.967,261.546Z" transform="translate(-90.436 -211.624)"/><path class="e" d="M117.749,66.639a2.362,2.362,0,0,0-2.1-1.376L90.9,64.755H90.82l-24.745.8a2.362,2.362,0,0,0-2.081,1.4l-7.1,15.971,34.031-.2H91l34.036-.2Z" transform="translate(-43.31 -61.984)"/><path class="f" d="M331.818,256.968a4.32,4.32,0,1,0,4.345,4.3v0A4.32,4.32,0,0,0,331.818,256.968Z" transform="translate(-249.322 -208.304)"/><path class="f" d="M41.281,258.7A4.32,4.32,0,1,0,45.627,263,4.32,4.32,0,0,0,41.281,258.7Z" transform="translate(-28.156 -209.625)"/><path class="d" d="M131.61,216.343h31.507v3.933H131.61Z" transform="translate(-100.186 -177.379)"/><path class="g" d="M305.2,185.7a1.677,1.677,0,0,0-1.855-1.478,1.651,1.651,0,0,0-.213.038l-14.408,3.523a1.678,1.678,0,0,0-1.036.762l-2.854,4.724a1.675,1.675,0,0,0,1.433,2.54h14.078a1.687,1.687,0,0,0,.928-.271C304.593,193.338,305.632,189.912,305.2,185.7Z" transform="translate(-216.641 -152.918)"/><path class="h" d="M332.648,196.035a3.157,3.157,0,1,0,3.284,3.026A3.157,3.157,0,0,0,332.648,196.035Z" transform="translate(-250.919 -161.917)"/><path class="h" d="M306.942,208.655a2.4,2.4,0,1,0,2.5,2.3v0A2.4,2.4,0,0,0,306.942,208.655Z" transform="translate(-231.901 -171.525)"/><path class="g" d="M27.5,185.7a1.677,1.677,0,0,1,1.855-1.478,1.651,1.651,0,0,1,.213.038l14.408,3.523a1.678,1.678,0,0,1,1.036.762l2.854,4.724a1.675,1.675,0,0,1-1.434,2.54H32.358a1.687,1.687,0,0,1-.928-.271C28.109,193.338,27.069,189.912,27.5,185.7Z" transform="translate(-20.865 -152.918)"/><path class="h" d="M45.923,196.035a3.157,3.157,0,1,1-3.283,3.026A3.157,3.157,0,0,1,45.923,196.035Z" transform="translate(-32.457 -161.917)"/><path class="h" d="M76.449,208.655a2.4,2.4,0,1,1-2.5,2.3v0A2.4,2.4,0,0,1,76.449,208.655Z" transform="translate(-56.295 -171.525)"/></g><g transform="translate(101.335 0)"><g transform="translate(0 16.727)"><path class="b" d="M327.159,265.218l7-.042a2.415,2.415,0,0,1,2.43,2.4l.083,13.894a2.415,2.415,0,0,1-2.4,2.43l-7,.042a2.416,2.416,0,0,1-2.43-2.4l-.083-13.894A2.415,2.415,0,0,1,327.159,265.218Z" transform="translate(-247.217 -231.279)"/><path class="b" d="M28.926,266.993l7-.042a2.415,2.415,0,0,1,2.43,2.4l.083,13.895a2.415,2.415,0,0,1-2.4,2.43l-7,.042a2.415,2.415,0,0,1-2.43-2.4l-.083-13.894A2.416,2.416,0,0,1,28.926,266.993Z" transform="translate(-20.192 -232.63)"/><path class="b" d="M353.864,123.306a1.129,1.129,0,0,0-1.023,1.136,2.283,2.283,0,0,1-1.71,2.5l-1.741.011.894,2.609s11.208-.067,10.873-3.749c-.26-2.857-5.124-2.714-7.293-2.506Z" transform="translate(-265.968 -123.208)"/><path class="b" d="M7.3,123.306a1.129,1.129,0,0,1,1.023,1.136,2.283,2.283,0,0,0,1.71,2.5l1.741.011-.894,2.609S-.328,129.493.008,125.812c.26-2.857,5.124-2.714,7.293-2.506Z" transform="translate(0 -123.208)"/></g><path class="c" d="M100.29,91.837a19.282,19.282,0,0,0-2.322-7.807l-4.724-8.664S84.855,56.458,81.36,54.953c-3.379-1.455-24.947-1.782-26.376-1.8h-.079c-1.429.038-22.991.622-26.352,2.118-3.477,1.546-11.644,20.55-11.644,20.55l-4.616,8.721a19.3,19.3,0,0,0-2.229,7.833A56.452,56.452,0,0,0,12,110.333a6.3,6.3,0,0,0,6.131,4.631l37.147-.215h.079l37.147-.221a6.3,6.3,0,0,0,6.074-4.7A56.4,56.4,0,0,0,100.29,91.837Z" transform="translate(-7.6 -53.151)"/><path class="d" d="M119.967,261.546l36.2-.216a1.173,1.173,0,0,1,1.18,1.166l.037,6.164a1.173,1.173,0,0,1-1.166,1.18l-36.2.216a1.173,1.173,0,0,1-1.18-1.166l-.037-6.164A1.173,1.173,0,0,1,119.967,261.546Z" transform="translate(-90.436 -211.624)"/><path class="e" d="M117.749,66.639a2.362,2.362,0,0,0-2.1-1.376L90.9,64.755H90.82l-24.745.8a2.362,2.362,0,0,0-2.081,1.4l-7.1,15.971,34.031-.2H91l34.036-.2Z" transform="translate(-43.31 -61.984)"/><path class="f" d="M331.818,256.968a4.32,4.32,0,1,0,4.345,4.3v0A4.32,4.32,0,0,0,331.818,256.968Z" transform="translate(-249.322 -208.304)"/><path class="f" d="M41.281,258.7A4.32,4.32,0,1,0,45.627,263,4.32,4.32,0,0,0,41.281,258.7Z" transform="translate(-28.156 -209.625)"/><path class="d" d="M131.61,216.343h31.507v3.933H131.61Z" transform="translate(-100.186 -177.379)"/><path class="g" d="M305.2,185.7a1.677,1.677,0,0,0-1.855-1.478,1.651,1.651,0,0,0-.213.038l-14.408,3.523a1.678,1.678,0,0,0-1.036.762l-2.854,4.724a1.675,1.675,0,0,0,1.433,2.54h14.078a1.687,1.687,0,0,0,.928-.271C304.593,193.338,305.632,189.912,305.2,185.7Z" transform="translate(-216.641 -152.918)"/><path class="h" d="M332.648,196.035a3.157,3.157,0,1,0,3.284,3.026A3.157,3.157,0,0,0,332.648,196.035Z" transform="translate(-250.919 -161.917)"/><path class="h" d="M306.942,208.655a2.4,2.4,0,1,0,2.5,2.3v0A2.4,2.4,0,0,0,306.942,208.655Z" transform="translate(-231.901 -171.525)"/><path class="g" d="M27.5,185.7a1.677,1.677,0,0,1,1.855-1.478,1.651,1.651,0,0,1,.213.038l14.408,3.523a1.678,1.678,0,0,1,1.036.762l2.854,4.724a1.675,1.675,0,0,1-1.434,2.54H32.358a1.687,1.687,0,0,1-.928-.271C28.109,193.338,27.069,189.912,27.5,185.7Z" transform="translate(-20.865 -152.918)"/><path class="h" d="M45.923,196.035a3.157,3.157,0,1,1-3.283,3.026A3.157,3.157,0,0,1,45.923,196.035Z" transform="translate(-32.457 -161.917)"/><path class="h" d="M76.449,208.655a2.4,2.4,0,1,1-2.5,2.3v0A2.4,2.4,0,0,1,76.449,208.655Z" transform="translate(-56.295 -171.525)"/></g></g></g></svg>